<?xml version="1.0" standalone="no"?>
<!DOCTYPE svg PUBLIC "-//W3C//DTD SVG 1.1//EN" "http://www.w3.org/Graphics/SVG/1.1/DTD/svg11.dtd" >
<svg>
<metadata>
Created by FontForge 20110222 at Wed Apr 17 15:50:32 2013
 By Orthosie Webmaster
Copyright 1990-1993 Bitstream Inc.  All rights reserved.
</metadata>
<defs>
<font id="Swis721ExBTBold" horiz-adv-x="1024" >
  <font-face 
    font-family="Swis721ExBTBold"
    font-weight="700"
    font-stretch="expanded"
    units-per-em="2048"
    panose-1="2 11 8 7 3 5 2 2 2 4"
    ascent="1638"
    descent="-410"
    x-height="1104"
    cap-height="1479"
    bbox="-436 -483 2714 1962"
    underline-thickness="223"
    underline-position="-98"
    unicode-range="U+0020-F002"
  />
<missing-glyph horiz-adv-x="1229" 
d="M102 -362v1806h1024v-1806h-1024zM217 -248h795v1577h-795v-1577z" />
    <glyph glyph-name=".notdef" horiz-adv-x="1229" 
d="M102 -362v1806h1024v-1806h-1024zM217 -248h795v1577h-795v-1577z" />
    <glyph glyph-name=".null" horiz-adv-x="0" 
 />
    <glyph glyph-name="nonmarkingreturn" horiz-adv-x="748" 
 />
    <glyph glyph-name="space" unicode=" " horiz-adv-x="748" 
 />
    <glyph glyph-name="exclam" unicode="!" horiz-adv-x="735" 
d="M242 453l-68 688v338h385v-338l-65 -688h-252zM180 0v356h375v-356h-375z" />
    <glyph glyph-name="quotedbl" unicode="&#x22;" horiz-adv-x="678" 
d="M406 1438h192v-559h-192v559zM80 1438h192v-559h-192v559z" />
    <glyph glyph-name="numbersign" unicode="#" horiz-adv-x="1575" 
d="M709 848l-88 -244h251l86 244h-249zM709 1464h221l-146 -415h242l148 415h221l-148 -415h283l-74 -201h-280l-84 -242h290l-71 -200h-291l-148 -416h-221l148 416h-244l-149 -416h-220l146 416h-287l76 200h282l86 242h-299l74 201h297z" />
    <glyph glyph-name="dollar" unicode="$" horiz-adv-x="1493" 
d="M786 248q132 6 192 45t60 117q0 61 -55.5 95t-196.5 56v-313zM653 922v286q-103 -3 -156 -38.5t-53 -102.5q0 -57 51.5 -93t157.5 -52zM639 -178v178q-288 12 -434 137t-146 359v24h347q0 -5 -1.5 -15t-1.5 -16q0 -113 64 -174t190 -67v340q-304 46 -434.5 145.5
t-130.5 282.5q0 190 141.5 300.5t405.5 125.5v155h168v-155q260 -5 398 -112t138 -304v-16h-329q-2 96 -57 144.5t-168 53.5l-1 -311q341 -50 476 -147t135 -283q0 -224 -152 -344t-440 -123v-178h-168z" />
    <glyph glyph-name="percent" unicode="%" horiz-adv-x="1884" 
d="M1262 348q0 -100 41.5 -154.5t117.5 -54.5q77 0 117.5 54t40.5 155q0 102 -41 156.5t-117 54.5t-117.5 -55t-41.5 -156zM1022 348q0 184 104 285.5t293 101.5q192 0 297 -101t105 -286q0 -184 -105 -285.5t-297 -101.5q-189 0 -293 101.5t-104 285.5zM289 -39l1077 1518
h233l-1079 -1518h-231zM307 1092q0 -100 42 -154.5t118 -54.5t117 53.5t41 155.5t-41 156.5t-117 54.5t-118 -55.5t-42 -155.5zM66 1092q0 183 104.5 285t294.5 102q192 0 296.5 -101.5t104.5 -285.5q0 -185 -104.5 -286t-296.5 -101q-190 0 -294.5 101.5t-104.5 285.5z" />
    <glyph glyph-name="ampersand" unicode="&#x26;" horiz-adv-x="1759" 
d="M788 1006q73 26 106.5 58.5t33.5 76.5q0 43 -29.5 67.5t-81.5 24.5q-53 0 -87 -25t-34 -63q0 -30 23 -64.5t69 -74.5zM1034 319l-327 336q-99 -44 -153 -99t-54 -112q0 -86 76.5 -142t197.5 -56q70 0 135.5 18.5t124.5 54.5zM1343 0l-96 102q-99 -69 -232.5 -105
t-291.5 -36q-263 0 -436.5 129t-173.5 320q0 143 94.5 255.5t292.5 204.5q-72 57 -111 132t-39 157q0 143 122 232.5t321 89.5q214 0 335 -87.5t121 -242.5q0 -113 -60 -195.5t-194 -154.5l262 -258q22 27 34.5 56.5t17.5 61.5l360 1q-30 -114 -74 -201t-104 -152l311 -309
h-459z" />
    <glyph glyph-name="quotesingle" unicode="'" horiz-adv-x="352" 
d="M80 1438h192v-559h-192v559z" />
    <glyph glyph-name="parenleft" unicode="(" horiz-adv-x="901" 
d="M840 1479q-155 -229 -230 -463.5t-75 -485.5q0 -250 75 -485t230 -463h-336q-166 266 -251 506t-85 442q0 203 85 443t251 506h336z" />
    <glyph glyph-name="parenright" unicode=")" horiz-adv-x="901" 
d="M59 -418q156 230 232 464.5t76 483.5q0 250 -76 484.5t-232 464.5h338q166 -266 251 -506t85 -443q0 -202 -85 -442t-251 -506h-338z" />
    <glyph glyph-name="asterisk" unicode="*" horiz-adv-x="1139" 
d="M569 909l-170 -231l-168 123l168 231l-272 88l66 199l272 -88v287h209v-287l272 88l64 -199l-273 -88l170 -231l-170 -123z" />
    <glyph glyph-name="plus" unicode="+" horiz-adv-x="1706" 
d="M752 1221h202v-510h498v-199h-498v-512h-202v512h-498v199h498v510z" />
    <glyph glyph-name="comma" unicode="," horiz-adv-x="748" 
d="M178 0v356h383v-241q0 -124 -35 -219t-118 -197h-246q75 94 107 163t32 132v6h-123z" />
    <glyph glyph-name="hyphen" unicode="-" horiz-adv-x="995" 
d="M141 391v322h713v-322h-713z" />
    <glyph glyph-name="period" unicode="." horiz-adv-x="748" 
d="M180 0v356h385v-356h-385z" />
    <glyph glyph-name="slash" unicode="/" horiz-adv-x="664" 
d="M172 -190h-203l588 1708h203z" />
    <glyph glyph-name="zero" unicode="0" horiz-adv-x="1493" 
d="M440 721q0 -225 80 -345t228 -120q147 0 226 120t79 345t-79 345t-226 120q-148 0 -228 -120.5t-80 -344.5zM80 721q0 361 173.5 559.5t489.5 198.5q321 0 495.5 -197.5t174.5 -560.5q0 -364 -174.5 -562t-495.5 -198q-315 0 -489 199.5t-174 560.5z" />
    <glyph glyph-name="one" unicode="1" horiz-adv-x="1493" 
d="M645 0v958h-391v242h33q182 0 276.5 57.5t122.5 184.5h307v-1442h-348z" />
    <glyph glyph-name="two" unicode="2" horiz-adv-x="1493" 
d="M111 0v43q0 155 43 272t137 215q55 60 454 267l27 14q9 5 27 14q202 103 202 199q0 78 -62 119t-181 41q-134 0 -202.5 -62.5t-72.5 -187.5h-368q4 259 172 403t469 144q298 0 462 -117.5t164 -329.5q0 -134 -80 -235.5t-266 -200.5q-67 -35 -181 -93
q-274 -139 -290 -198h789v-307h-1243z" />
    <glyph glyph-name="three" unicode="3" horiz-adv-x="1493" 
d="M66 510h368v-10q0 -125 75.5 -184.5t231.5 -59.5q143 0 214 46.5t71 139.5q0 94 -74.5 133t-261.5 39q-37 0 -57 -0.5t-37 -0.5v270q13 0 37 -1t35 -1q176 0 248.5 37t72.5 124q0 79 -68 122.5t-192 43.5q-137 0 -202.5 -54.5t-65.5 -168.5v-6h-365q6 239 176 369.5
t476 130.5q285 0 443.5 -106t158.5 -296q0 -105 -49.5 -179.5t-153.5 -125.5q127 -46 189.5 -131.5t62.5 -214.5q0 -213 -187 -339t-507 -126q-306 0 -472.5 137.5t-166.5 388.5v23z" />
    <glyph glyph-name="four" unicode="4" horiz-adv-x="1493" 
d="M854 575l16 564l-467 -564h451zM854 0v303h-780v326l727 813h399v-867h232v-272h-232v-303h-346z" />
    <glyph glyph-name="five" unicode="5" horiz-adv-x="1493" 
d="M80 432h383q15 -86 78.5 -130t171.5 -44q130 0 206 63.5t76 172.5t-74 172t-202 63q-80 0 -144 -32t-106 -93h-354l159 838h1004v-301h-743l-43 -219q76 47 157 70.5t168 23.5q247 0 395 -135t148 -359q0 -263 -170.5 -412t-472.5 -149q-282 0 -449.5 124t-187.5 347z
" />
    <glyph glyph-name="six" unicode="6" horiz-adv-x="1493" 
d="M485 469q0 -102 71 -159.5t198 -57.5q144 0 223.5 55t79.5 156q0 104 -77.5 162.5t-215.5 58.5q-127 0 -203 -58.5t-76 -156.5zM469 846q72 55 164 82.5t203 27.5q275 0 431 -128t156 -353q0 -243 -172.5 -378.5t-484.5 -135.5q-332 0 -505 191t-173 557q0 378 181.5 574
t531.5 196q253 0 409 -120t162 -319h-368q-8 75 -65.5 113.5t-162.5 38.5q-149 0 -228 -83t-79 -241v-22z" />
    <glyph glyph-name="seven" unicode="7" horiz-adv-x="1493" 
d="M309 0q71 325 228 605t413 538h-848v299h1287v-271q-256 -208 -421 -500.5t-239 -670.5h-420z" />
    <glyph glyph-name="eight" unicode="8" horiz-adv-x="1493" 
d="M479 1030q0 -74 68.5 -113.5t197.5 -39.5q130 0 198.5 39t68.5 114q0 76 -68 116t-199 40q-130 0 -198 -40t-68 -116zM444 440q0 -87 76 -131.5t225 -44.5q150 0 226 44.5t76 131.5t-78.5 134t-223.5 47t-223 -47t-78 -134zM311 786q-97 42 -142.5 110t-45.5 175
q0 191 165.5 300.5t456.5 109.5q292 0 458.5 -110t166.5 -300q0 -107 -45.5 -175t-142.5 -110q122 -63 177.5 -147t55.5 -205q0 -221 -177.5 -347t-492.5 -126q-314 0 -490.5 126t-176.5 347q0 121 55.5 205t177.5 147z" />
    <glyph glyph-name="nine" unicode="9" horiz-adv-x="1493" 
d="M440 977q0 -104 77.5 -162.5t215.5 -58.5q127 0 203 59.5t76 157.5q0 102 -71 159.5t-198 57.5q-143 0 -223 -56t-80 -157zM125 399h368q10 -75 65.5 -112t160.5 -37q149 0 228 83t79 240v23q-73 -56 -165 -84.5t-202 -28.5q-274 0 -430.5 129t-156.5 355
q0 241 173.5 376.5t485.5 135.5q332 0 504 -190t172 -556q0 -379 -182 -575.5t-531 -196.5q-253 0 -408 120t-161 318z" />
    <glyph glyph-name="colon" unicode=":" horiz-adv-x="735" 
d="M559 0h-383v356h383v-356zM559 750h-383v354h383v-354z" />
    <glyph glyph-name="semicolon" unicode=";" horiz-adv-x="735" 
d="M559 750h-385v354h385v-354zM174 0v356h385v-241q0 -123 -35.5 -217.5t-120.5 -198.5h-243q73 92 105 161.5t32 133.5v6h-123z" />
    <glyph glyph-name="less" unicode="&#x3c;" horiz-adv-x="1706" 
d="M1442 1194v-219l-893 -365l893 -364v-219l-1178 485v199z" />
    <glyph glyph-name="equal" unicode="=" horiz-adv-x="1706" 
d="M254 496h1198v-199h-1198v199zM254 926h1198v-199h-1198v199z" />
    <glyph glyph-name="greater" unicode="&#x3e;" horiz-adv-x="1706" 
d="M264 1194l1178 -483v-199l-1178 -485v219l895 364l-895 365v219z" />
    <glyph glyph-name="question" unicode="?" horiz-adv-x="1343" 
d="M453 453v24q0 99 36.5 169.5t131.5 146.5q26 21 102 67.5t117 79.5q26 22 40.5 53.5t14.5 69.5q0 76 -54 118t-153 42q-130 0 -199 -66.5t-69 -191.5v-25h-363v16q0 278 163 420t482 142q270 0 423 -116.5t153 -320.5q0 -119 -54.5 -204t-228.5 -203q-8 -6 -24 -17
q-148 -101 -148 -200v-4h-370zM449 0v356h374v-356h-374z" />
    <glyph glyph-name="at" unicode="@" horiz-adv-x="2048" 
d="M1167 272q-55 -84 -127 -123.5t-170 -39.5q-158 0 -240.5 86t-82.5 254q0 239 139.5 401t343.5 162q80 0 139 -33t97 -98l53 98h178l-147 -598q-3 -11 -5 -22.5t-2 -18.5q0 -35 24 -52.5t71 -17.5q39 0 81.5 20t79.5 56q86 80 130.5 187t44.5 235q0 240 -185.5 394.5
t-478.5 154.5q-141 0 -262.5 -34t-220.5 -101q-170 -114 -261.5 -285t-91.5 -375q0 -307 207 -490.5t553 -183.5q162 0 316.5 49t287.5 142l82 -117q-153 -115 -324.5 -173t-357.5 -58q-192 0 -353 48.5t-286 143.5q-155 121 -232 279t-77 358q0 167 52.5 318.5t154.5 275.5
q148 181 356 274t463 93q169 0 317.5 -45.5t258.5 -128.5q135 -105 201.5 -239.5t66.5 -303.5q0 -165 -65.5 -304.5t-188.5 -238.5q-70 -56 -152.5 -85.5t-171.5 -29.5q-106 0 -159.5 42t-55.5 124zM1217 700q-13 81 -57.5 123.5t-117.5 42.5q-114 0 -198 -124t-84 -298
q0 -92 40.5 -140t117.5 -48q83 0 151.5 63t93.5 164z" />
    <glyph glyph-name="A" unicode="A" horiz-adv-x="1587" 
d="M588 612h391l-199 457zM-72 0l701 1479h356l674 -1479h-412l-135 313h-651l-133 -313h-400z" />
    <glyph glyph-name="B" unicode="B" horiz-adv-x="1753" 
d="M975 1192h-438v-305h438q148 0 203 34t55 117q0 82 -59.5 118t-198.5 36zM537 295h493q150 0 204 36t54 126t-60 130t-198 40h-493v-332zM166 0v1479h956q249 0 373.5 -92.5t124.5 -276.5q0 -108 -51 -190.5t-150 -133.5q128 -41 193 -133.5t65 -230.5
q0 -197 -128 -309.5t-353 -112.5h-1030z" />
    <glyph glyph-name="C" unicode="C" horiz-adv-x="1907" 
d="M1825 573q-30 -278 -261.5 -445t-590.5 -167q-405 0 -646 211.5t-241 566.5t241 567t646 212q354 0 585.5 -159.5t260.5 -418.5h-404q-37 136 -148.5 205t-293.5 69q-222 0 -350.5 -127t-128.5 -348q0 -220 128 -346.5t351 -126.5q193 0 310.5 81t135.5 226h406z" />
    <glyph glyph-name="D" unicode="D" horiz-adv-x="1833" 
d="M555 1182v-875h287q254 0 386 111.5t132 326.5t-131.5 326t-386.5 111h-287zM834 1479q240 0 359.5 -22.5t213.5 -74.5q164 -89 253 -256t89 -387q0 -219 -89 -386t-253 -257q-94 -52 -213.5 -74t-359.5 -22h-668v1479h668z" />
    <glyph glyph-name="E" unicode="E" horiz-adv-x="1554" 
d="M166 0v1479h1313v-299h-942v-250h839v-301h-839v-318h942v-311h-1313z" />
    <glyph glyph-name="F" unicode="F" horiz-adv-x="1479" 
d="M166 0v1479h1261v-299h-890v-285h815v-299h-815v-596h-371z" />
    <glyph glyph-name="G" unicode="G" horiz-adv-x="1958" 
d="M1499 166q-106 -103 -241.5 -154t-305.5 -51q-171 0 -324 48t-266 136q-139 110 -207.5 256.5t-68.5 337.5q0 355 241 567t646 212q342 0 570 -152.5t261 -398.5h-403q-51 124 -157.5 185.5t-270.5 61.5q-222 0 -350.5 -127t-128.5 -348q0 -220 128 -346.5t351 -126.5
q152 0 267 65t167 179h-336v295h729v-805h-280z" />
    <glyph glyph-name="H" unicode="H" horiz-adv-x="1782" 
d="M166 0v1479h371v-555h710v555h369v-1479h-369v614h-710v-614h-371z" />
    <glyph glyph-name="I" unicode="I" horiz-adv-x="711" 
d="M170 0v1479h371v-1479h-371z" />
    <glyph glyph-name="J" unicode="J" horiz-adv-x="1360" 
d="M70 608h352v-67q0 -139 51.5 -209t153.5 -70q117 0 165 73t48 273v871h368v-844q0 -200 -15.5 -285t-53.5 -147q-72 -118 -200 -180t-300 -62q-292 0 -430.5 134t-138.5 417v96z" />
    <glyph glyph-name="K" unicode="K" horiz-adv-x="1651" 
d="M166 0v1479h371v-568l622 568h477l-651 -574l731 -905h-454l-537 678l-188 -166v-512h-371z" />
    <glyph glyph-name="L" unicode="L" horiz-adv-x="1358" 
d="M166 0v1479h371v-1168h761v-311h-1132z" />
    <glyph glyph-name="M" unicode="M" horiz-adv-x="2253" 
d="M166 0v1479h479l477 -1059l490 1059h475v-1479h-356v987l-459 -987h-309l-441 1004v-1004h-356z" />
    <glyph glyph-name="N" unicode="N" horiz-adv-x="1882" 
d="M166 0v1479h455l739 -1043v1043h356v-1479h-450l-746 1053v-1053h-354z" />
    <glyph glyph-name="O" unicode="O" horiz-adv-x="1946" 
d="M973 266q222 0 349.5 126.5t127.5 346.5q0 222 -127.5 348.5t-349.5 126.5t-350.5 -127t-128.5 -348q0 -220 128 -346.5t351 -126.5zM86 739q0 355 241 567t646 212t645 -212t240 -567t-240 -566.5t-645 -211.5t-646 211.5t-241 566.5z" />
    <glyph glyph-name="P" unicode="P" horiz-adv-x="1645" 
d="M537 762h340q187 0 262 47.5t75 159.5q0 115 -65 161t-248 46h-364v-414zM166 0v1479h876q258 0 402.5 -133.5t144.5 -370.5t-144.5 -369.5t-402.5 -132.5h-505v-473h-371z" />
    <glyph glyph-name="Q" unicode="Q" horiz-adv-x="1946" 
d="M1176 303l-123 137l225 209l127 -139q24 44 35.5 99.5t11.5 129.5q0 219 -129 347t-350 128q-222 0 -350.5 -127t-128.5 -348q0 -224 131.5 -350.5t363.5 -126.5q56 0 102 10t85 31zM1407 45q-96 -42 -203 -63t-231 -21q-405 0 -646 211.5t-241 566.5t241 567t646 212
t645 -212t240 -567q0 -166 -49.5 -296t-147.5 -224l133 -145l-223 -209z" />
    <glyph glyph-name="R" unicode="R" horiz-adv-x="1753" 
d="M537 848h419q166 0 233.5 40.5t67.5 133.5q0 90 -63 126t-254 36h-403v-336zM166 0v1479h909q296 0 436 -97t140 -301q0 -130 -65.5 -230t-180.5 -144q98 -41 137.5 -101.5t46.5 -213.5q1 -15 2 -41q12 -275 78 -351h-416q-15 24 -22.5 53t-7.5 62v100q0 204 -52.5 267
t-205.5 63h-9h-419v-545h-371z" />
    <glyph glyph-name="S" unicode="S" horiz-adv-x="1759" 
d="M104 512h379v-14q0 -125 110 -190.5t320 -65.5q162 0 250 47.5t88 134.5q0 73 -57.5 107.5t-232.5 52.5l-263 26q-288 30 -423.5 131t-135.5 285q0 218 195.5 355t517.5 137q346 0 541.5 -129t195.5 -353v-12h-368q-13 111 -103.5 166t-259.5 55q-156 0 -242 -44.5
t-86 -125.5q0 -65 50.5 -95t248.5 -52l275 -29q284 -31 417.5 -136.5t133.5 -297.5q0 -247 -200.5 -375.5t-586.5 -128.5q-368 0 -566 135t-198 385v31z" />
    <glyph glyph-name="T" unicode="T" horiz-adv-x="1360" 
d="M864 1180v-1180h-368v1180h-506v299h1380v-299h-506z" />
    <glyph glyph-name="U" unicode="U" horiz-adv-x="1847" 
d="M535 1479v-795q0 -218 92 -317t295 -99q108 0 188 30.5t129 90.5q39 47 55.5 107.5t16.5 187.5v795h368v-834q0 -336 -192 -510t-565 -174q-372 0 -564 174t-192 510v834h369z" />
    <glyph glyph-name="V" unicode="V" horiz-adv-x="1507" 
d="M561 0l-643 1479h408l426 -1061l432 1061h405l-651 -1479h-377z" />
    <glyph glyph-name="W" unicode="W" horiz-adv-x="2351" 
d="M438 0l-471 1479h385l295 -996l348 996h365l336 -996l303 996h385l-479 -1479h-377l-354 1077l-371 -1077h-365z" />
    <glyph glyph-name="X" unicode="X" horiz-adv-x="1481" 
d="M-86 0l610 750l-581 729h467l340 -463l340 463h456l-583 -725l604 -754h-477l-345 475l-366 -475h-465z" />
    <glyph glyph-name="Y" unicode="Y" horiz-adv-x="1456" 
d="M537 0v631l-646 848h471l369 -529l365 529h469l-658 -848v-631h-370z" />
    <glyph glyph-name="Z" unicode="Z" horiz-adv-x="1608" 
d="M57 0v319l959 852h-918v308h1452v-308l-972 -868h981v-303h-1502z" />
    <glyph glyph-name="bracketleft" unicode="[" horiz-adv-x="901" 
d="M199 -418v1897h649v-285h-303v-1327h303v-285h-649z" />
    <glyph glyph-name="backslash" unicode="\" horiz-adv-x="664" 
d="M492 -190l-588 1708h205l587 -1708h-204z" />
    <glyph glyph-name="bracketright" unicode="]" horiz-adv-x="901" 
d="M702 1479v-1897h-651v285h305v1327h-305v285h651z" />
    <glyph glyph-name="asciicircum" unicode="^" horiz-adv-x="2048" 
d="M897 1460h252l481 -561h-235l-371 371l-373 -371h-235z" />
    <glyph glyph-name="underscore" unicode="_" 
d="M0 -279h1024v-204h-1024v204z" />
    <glyph glyph-name="grave" unicode="`" 
d="M442 1253l-325 318h434l151 -318h-260z" />
    <glyph glyph-name="a" unicode="a" horiz-adv-x="1526" 
d="M1050 532q-64 -35 -245 -53q-22 -3 -33 -4q-193 -20 -244 -49t-51 -90q0 -64 50.5 -102.5t134.5 -38.5q174 0 282.5 83t108.5 216q0 16 -0.5 24t-2.5 14zM1384 178q0 -65 12 -99.5t40 -53.5v-25h-377l-17 121q-89 -82 -201 -121t-259 -39q-228 0 -359 99t-131 268
q0 157 118 234.5t405 101.5q38 3 106 7q330 23 330 128q0 63 -63.5 94t-190.5 31q-128 0 -188 -44.5t-62 -139.5l-357 -1v4q0 195 161 297.5t466 102.5q150 0 265.5 -29.5t193.5 -87.5q59 -45 83.5 -113.5t24.5 -207.5v-527z" />
    <glyph glyph-name="b" unicode="b" horiz-adv-x="1569" 
d="M485 975q65 71 162 107t223 36q283 0 457 -159.5t174 -417.5q0 -256 -174 -417t-450 -161q-129 0 -224.5 34t-167.5 105v-102h-340v1479h340v-504zM485 539q0 -143 88.5 -229.5t235.5 -86.5q148 0 236 85t88 229q0 145 -87.5 230t-236.5 85q-148 0 -236 -85.5t-88 -227.5
z" />
    <glyph glyph-name="c" unicode="c" horiz-adv-x="1475" 
d="M1413 449q-17 -218 -202 -353t-472 -135q-304 0 -488.5 162t-184.5 430q0 274 186.5 432t511.5 158q281 0 445 -119.5t192 -343.5h-377q-14 96 -86.5 147.5t-194.5 51.5q-139 0 -223 -89.5t-84 -238.5t83.5 -237.5t223.5 -88.5q118 0 196.5 62.5t86.5 161.5h387z" />
    <glyph glyph-name="d" unicode="d" horiz-adv-x="1569" 
d="M1083 539q0 142 -88 227.5t-235 85.5q-149 0 -236.5 -85t-87.5 -230q0 -144 88 -229t236 -85q147 0 235 86.5t88 229.5zM1083 975v504h342v-1479h-342v102q-71 -71 -166.5 -105t-224.5 -34q-277 0 -450.5 161t-173.5 417q0 258 174 417.5t456 159.5q126 0 222 -35.5
t163 -107.5z" />
    <glyph glyph-name="e" unicode="e" horiz-adv-x="1460" 
d="M461 693l552 -1q-9 103 -83 162t-193 59q-118 0 -192.5 -59.5t-83.5 -160.5zM1374 358q-68 -190 -236 -293.5t-409 -103.5q-306 0 -484.5 159.5t-178.5 432.5t178 431.5t485 158.5q319 0 491.5 -164.5t172.5 -468.5v-47h-942q3 -121 78.5 -192.5t199.5 -71.5
q97 0 167 41.5t101 117.5h377z" />
    <glyph glyph-name="f" unicode="f" horiz-adv-x="862" 
d="M227 0v844h-161v260h161v110q0 142 84.5 203.5t282.5 61.5h231v-265h-143q-69 0 -91 -17.5t-22 -68.5v-24h256v-260h-256v-844h-342z" />
    <glyph glyph-name="g" unicode="g" horiz-adv-x="1569" 
d="M1083 590q0 135 -87.5 215t-235.5 80q-149 0 -236.5 -80t-87.5 -215t87.5 -215t236.5 -80q148 0 235.5 80t87.5 215zM1425 197q0 -192 -28 -274t-94 -144q-94 -86 -228.5 -127t-324.5 -41q-292 0 -440 91.5t-148 272.5v19h342q0 -70 61 -104.5t187 -34.5
q186 0 258.5 55.5t72.5 195.5v74q-69 -67 -163 -100t-220 -33q-283 0 -457.5 150t-174.5 393q0 240 174 392.5t452 152.5q130 0 224.5 -32t164.5 -99v100h342v-907z" />
    <glyph glyph-name="h" unicode="h" horiz-adv-x="1518" 
d="M139 0v1479h342v-541q89 97 196 144.5t234 47.5q142 0 245.5 -44t160.5 -130q35 -53 50 -124.5t15 -223.5v-608h-342v535q0 185 -53.5 254t-185.5 69q-149 0 -234.5 -83.5t-85.5 -229.5v-545h-342z" />
    <glyph glyph-name="i" unicode="i" horiz-adv-x="664" 
d="M502 1214h-340v265h340v-265zM162 0v1104h340v-1104h-340z" />
    <glyph glyph-name="j" unicode="j" horiz-adv-x="664" 
d="M162 1104h340v-1065q0 -144 -18 -206.5t-60 -108.5q-54 -60 -128.5 -86.5t-189.5 -26.5h-167v287h61q86 0 124 34.5t38 112.5v1059zM502 1214h-340v265h340v-265z" />
    <glyph glyph-name="k" unicode="k" horiz-adv-x="1456" 
d="M162 0v1479h340v-791l491 416h441l-545 -451l590 -653h-455l-387 442l-135 -106v-336h-340z" />
    <glyph glyph-name="l" unicode="l" horiz-adv-x="664" 
d="M162 0v1479h340v-1479h-340z" />
    <glyph glyph-name="m" unicode="m" horiz-adv-x="2408" 
d="M481 938q91 97 199 146t231 49q160 0 274.5 -61t160.5 -169q83 111 201 170.5t255 59.5q139 0 244 -46t162 -131q35 -53 50 -124.5t15 -223.5v-608h-342v535q0 185 -53.5 254t-185.5 69q-149 0 -234.5 -83.5t-85.5 -229.5v-545h-332v535q0 185 -53.5 254t-185.5 69
q-149 0 -234.5 -83.5t-85.5 -229.5v-545h-342v1104h342v-166z" />
    <glyph glyph-name="n" unicode="n" horiz-adv-x="1518" 
d="M139 0v1104h342v-166q91 97 199 146t231 49q139 0 244 -46t162 -131q35 -53 50 -124.5t15 -223.5v-608h-342v535q0 185 -53.5 254t-185.5 69q-149 0 -234.5 -83.5t-85.5 -229.5v-545h-342z" />
    <glyph glyph-name="o" unicode="o" horiz-adv-x="1526" 
d="M436 551q0 -146 89.5 -233t238.5 -87q148 0 237 87.5t89 234.5q0 146 -88.5 232.5t-237.5 86.5t-238.5 -87.5t-89.5 -233.5zM66 553q0 274 186.5 432t511.5 158q324 0 510 -158t186 -432t-186.5 -433t-509.5 -159t-510.5 159t-187.5 433z" />
    <glyph glyph-name="p" unicode="p" horiz-adv-x="1569" 
d="M485 551q0 -143 88 -228t236 -85q149 0 236.5 84.5t87.5 230.5q0 144 -88 228.5t-236 84.5q-147 0 -235.5 -86t-88.5 -229zM145 -389v1493h340v-111q69 71 166 105.5t226 34.5q277 0 450.5 -161.5t173.5 -418.5q0 -260 -174 -421t-457 -161q-124 0 -218.5 35.5
t-166.5 108.5v-504h-340z" />
    <glyph glyph-name="q" unicode="q" horiz-adv-x="1569" 
d="M1083 551q0 143 -88 229t-235 86q-148 0 -236 -84.5t-88 -228.5q0 -146 87.5 -230.5t236.5 -84.5q147 0 235 85t88 228zM1425 -389h-342v504q-71 -73 -165.5 -108.5t-219.5 -35.5q-282 0 -456 161t-174 421q0 257 173.5 418.5t450.5 161.5q130 0 226 -34.5t165 -105.5
v111h342v-1493z" />
    <glyph glyph-name="r" unicode="r" horiz-adv-x="909" 
d="M481 0h-342v1104h342v-146q78 94 160.5 139.5t173.5 45.5q18 0 69 -6q18 -1 27 -2v-291q-17 2 -39 3t-69 1q-150 0 -236 -94t-86 -260v-494z" />
    <glyph glyph-name="s" unicode="s" horiz-adv-x="1456" 
d="M98 362h361q8 -83 80.5 -120t228.5 -37q107 0 171.5 30t64.5 78q0 43 -36.5 62t-154.5 28l-309 27q-171 15 -271 106.5t-100 231.5q0 182 154.5 278.5t445.5 96.5q278 0 435 -95.5t157 -263.5v-10h-342q-12 73 -78 108.5t-190 35.5q-104 0 -162.5 -27t-58.5 -74
q0 -45 58 -69t198 -35l239 -19q178 -13 273.5 -98.5t95.5 -230.5q0 -198 -157.5 -301t-461.5 -103q-307 0 -468.5 101t-172.5 300z" />
    <glyph glyph-name="t" unicode="t" horiz-adv-x="862" 
d="M227 1395h342v-291h256v-260h-256v-467q0 -110 19.5 -130t93.5 -20h143v-266h-231q-197 0 -282 62.5t-85 203.5v617h-161v260h161v291z" />
    <glyph glyph-name="u" unicode="u" horiz-adv-x="1518" 
d="M1382 1104v-1104h-342v166q-89 -97 -195.5 -145t-234.5 -48q-141 0 -244.5 44.5t-160.5 129.5q-36 54 -51 125t-15 224v608h342v-535q0 -184 53.5 -252.5t186.5 -68.5q149 0 234 82.5t85 228.5v545h342z" />
    <glyph glyph-name="v" unicode="v" horiz-adv-x="1298" 
d="M477 0l-516 1104h375l301 -721l330 721h370l-538 -1104h-322z" />
    <glyph glyph-name="w" unicode="w" horiz-adv-x="1987" 
d="M424 0l-444 1104h366l250 -764l227 764h340l228 -764l247 764h369l-444 -1104h-340l-230 739l-231 -739h-338z" />
    <glyph glyph-name="x" unicode="x" horiz-adv-x="1290" 
d="M-53 0l487 563l-434 541h428l215 -295l225 295h443l-469 -551l501 -553h-454l-252 309l-242 -309h-448z" />
    <glyph glyph-name="y" unicode="y" horiz-adv-x="1298" 
d="M131 -389v303h197q64 0 96.5 25.5t32.5 74.5q0 21 -3.5 38.5t-9.5 31.5l-479 1020h381l295 -711l320 711h376l-618 -1266q-38 -76 -81 -126t-93 -74q-29 -15 -66.5 -21t-109.5 -6h-56h-182z" />
    <glyph glyph-name="z" unicode="z" horiz-adv-x="1309" 
d="M68 0v266l692 574h-643v264h1102v-264l-701 -574h723v-266h-1173z" />
    <glyph glyph-name="braceleft" unicode="{" 
d="M883 1477v-209q-9 0 -25 1t-22 1q-101 0 -136.5 -38.5t-35.5 -162.5v-240q0 -148 -45 -210t-162 -89q117 -27 162 -88t45 -209v-241q0 -123 35 -161t137 -38q6 0 22 1t25 1v-209q-14 0 -39 -1t-37 -1q-100 0 -167 12t-114 37q-57 34 -80.5 91.5t-23.5 199.5v252
q0 137 -51 194.5t-172 57.5q-6 0 -20 -1t-21 -1v209q7 0 21 -1t20 -1q120 0 171.5 58t51.5 196v250q0 143 23.5 201t80.5 92q47 25 114 37t167 12q12 0 37 -1t39 -1z" />
    <glyph glyph-name="bar" unicode="|" 
d="M410 1565h206v-2048h-206v2048z" />
    <glyph glyph-name="braceright" unicode="}" 
d="M143 1477h68q110 0 177 -12t112 -38q57 -32 80.5 -91.5t23.5 -198.5v-252q0 -137 51 -194.5t172 -57.5q6 0 20 1t21 1v-209h-37q-125 0 -176 -56t-51 -194v-252q0 -143 -23.5 -201t-80.5 -90q-47 -25 -114 -37t-167 -12q-12 0 -37 1t-39 1v209q9 0 25 -1t22 -1
q101 0 136.5 38.5t35.5 160.5v239q0 150 45 211.5t162 87.5q-117 27 -162 89t-45 210v242q0 122 -35.5 160.5t-136.5 38.5q-6 0 -22 -1t-25 -1v209z" />
    <glyph glyph-name="asciitilde" unicode="~" horiz-adv-x="1706" 
d="M1530 803v-221q-104 -71 -196.5 -104.5t-182.5 -33.5q-46 0 -92 8t-92 23q-24 8 -71 25q-219 75 -333 75q-85 0 -177.5 -37.5t-207.5 -119.5v221q107 72 204 107.5t183 35.5q117 0 291 -58q3 -1 4 -1q18 -6 55 -19q155 -55 240 -55t175 37t200 117z" />
    <glyph glyph-name="nonbreakingspace" unicode="&#xa0;" horiz-adv-x="1493" 
 />
    <glyph glyph-name="exclamdown" unicode="&#xa1;" horiz-adv-x="735" 
d="M494 1026l65 -688v-338h-385v338l68 688h252zM555 1479v-355h-375v355h375z" />
    <glyph glyph-name="cent" unicode="&#xa2;" horiz-adv-x="1493" 
d="M694 264v647q-122 -20 -190 -104.5t-68 -218.5q0 -135 68.5 -221t189.5 -103zM1413 483q-16 -197 -168 -326t-401 -153v-215h-170v211q-288 24 -448 179.5t-160 408.5q0 252 162.5 409t445.5 177v192h170v-190q242 -13 387 -133t170 -328h-377q-14 85 -67 134t-142 58
v-641q95 20 149 75.5t62 141.5h387z" />
    <glyph glyph-name="sterling" unicode="&#xa3;" horiz-adv-x="1493" 
d="M256 -39l-164 307q110 72 164.5 142.5t54.5 142.5q0 13 -3 36q-1 3 -1 5h-178v248h127q-27 52 -40 102t-13 100q0 205 155 320t433 115q285 0 440.5 -133.5t163.5 -384.5h-363q-4 114 -62 173.5t-167 59.5q-105 0 -166.5 -52.5t-61.5 -142.5q0 -33 10.5 -72.5t30.5 -84.5
h357v-248h-307q-3 -75 -35.5 -142t-91.5 -120q41 9 76 13.5t63 4.5q54 0 183 -27.5t204 -27.5q70 0 134.5 20.5t139.5 67.5l88 -336q-82 -44 -165 -65t-170 -21q-114 0 -306 42t-268 42q-68 0 -133 -21t-129 -63z" />
    <glyph glyph-name="currency" unicode="&#xa4;" horiz-adv-x="1241" 
d="M623 1161q-113 0 -195 -82t-82 -194q0 -114 81 -194.5t196 -80.5q113 0 194.5 80.5t81.5 194.5q0 112 -81.5 194t-194.5 82zM172 1438l205 -203q54 39 114 58.5t130 19.5t131.5 -19.5t115.5 -58.5l203 203l105 -107l-203 -205q38 -53 57 -113.5t19 -127.5t-19 -127
t-57 -115l203 -205l-105 -104l-203 203q-54 -40 -115 -59t-130 -19q-72 0 -132.5 19t-113.5 59l-205 -203l-104 104l202 205q-38 54 -56.5 113.5t-18.5 128.5q0 67 18.5 127.5t56.5 113.5l-202 205z" />
    <glyph glyph-name="yen" unicode="&#xa5;" horiz-adv-x="1493" 
d="M1540 1442l-350 -461h246v-123h-346l-105 -137h451v-123h-535v-598h-328v598h-528v123h449l-107 137h-342v123h250l-352 461h448l365 -531l366 531h418z" />
    <glyph glyph-name="brokenbar" unicode="&#xa6;" 
d="M410 408h206v-758h-206v758zM410 1432h206v-758h-206v758z" />
    <glyph glyph-name="section" unicode="&#xa7;" horiz-adv-x="1636" 
d="M1153 391q47 26 72.5 63t25.5 81q0 60 -36 93t-134 54l-466 102q-20 5 -55.5 14t-86.5 23q-43 -30 -63.5 -63.5t-20.5 -73.5q0 -51 34 -86.5t97 -50.5l451 -105q54 -12 101 -25t81 -26zM125 115h385q0 -91 86 -136t260 -45q100 0 158.5 29.5t58.5 77.5q0 41 -45.5 66.5
t-183.5 54.5l-348 71q-231 48 -336 142.5t-105 253.5q0 115 61 202t173 130q-35 44 -52.5 95t-17.5 109q0 171 154.5 262t445.5 91q282 0 432 -108.5t156 -317.5h-334v10q0 84 -73.5 127t-219.5 43q-89 0 -138.5 -28.5t-49.5 -78.5q0 -40 26.5 -63.5t86.5 -36.5l479 -98
q204 -42 300.5 -135.5t96.5 -247.5q0 -104 -51.5 -178t-153.5 -115q54 -41 79.5 -96t25.5 -129q0 -185 -180.5 -292.5t-495.5 -107.5q-303 0 -480.5 117.5t-199.5 331.5z" />
    <glyph glyph-name="dieresis" unicode="&#xa8;" 
d="M944 1280h-328v264h328v-264zM410 1280h-328v264h328v-264z" />
    <glyph glyph-name="copyright" unicode="&#xa9;" horiz-adv-x="1706" 
d="M1212 897h-188q-8 70 -53 108.5t-119 38.5q-91 0 -143 -81.5t-52 -227.5q0 -147 52 -224t151 -77q73 0 117 42t53 119l193 1q-8 -139 -109 -223t-260 -84q-186 0 -293.5 118t-107.5 322q0 206 109.5 328.5t293.5 122.5q152 0 250.5 -78t105.5 -205zM854 1356
q-128 0 -239.5 -46t-198.5 -134q-89 -90 -136 -203.5t-47 -237.5q0 -125 47 -237t136 -201q88 -88 201 -135t237 -47t237.5 47t204.5 137q88 86 133.5 197t45.5 239q0 126 -46.5 238.5t-134.5 200.5q-89 89 -201 135.5t-239 46.5zM852 1479q152 0 287.5 -56t242.5 -163
q105 -105 160 -240.5t55 -286.5q0 -152 -54.5 -284t-160.5 -236q-111 -108 -248 -165.5t-282 -57.5q-147 0 -280.5 56.5t-241.5 164.5q-107 106 -163 240.5t-56 281.5q0 149 56 284.5t163 244.5q105 106 238 161.5t284 55.5z" />
    <glyph glyph-name="ordfeminine" unicode="&#xaa;" horiz-adv-x="1145" 
d="M788 1079q-45 -22 -170 -36q-25 -3 -39 -5q-148 -14 -184.5 -34t-36.5 -62q0 -45 37.5 -71.5t100.5 -26.5q132 0 213.5 58t81.5 151q0 11 -1 17t-2 9zM1038 831q0 -45 9.5 -69.5t29.5 -38.5v-16h-282l-13 84q-67 -57 -151 -84t-195 -27q-170 0 -268 69t-98 187
q0 110 88 164.5t302 70.5q31 3 84 6q244 17 244 89q0 44 -47 66t-143 22t-141.5 -31.5t-47.5 -97.5h-266v2q0 136 120.5 208t348.5 72q113 0 199.5 -20.5t144.5 -61.5q45 -31 63.5 -79t18.5 -146v-369z" />
    <glyph glyph-name="guillemotleft" unicode="&#xab;" horiz-adv-x="1276" 
d="M696 674l439 352v-326l-199 -147l199 -150v-325l-439 352v244zM137 674l438 352v-326l-198 -147l198 -150v-325l-438 352v244z" />
    <glyph glyph-name="logicalnot" unicode="&#xac;" horiz-adv-x="1706" 
d="M254 864h1198v-502h-199v306h-999v196z" />
    <glyph glyph-name="sfthyphen" unicode="&#xad;" horiz-adv-x="995" 
d="M141 391v322h713v-322h-713z" />
    <glyph glyph-name="registered" unicode="&#xae;" horiz-adv-x="1706" 
d="M745 1034v-239h99q88 0 129 28t41 88q0 63 -44 93t-136 30h-89zM545 1161h323q176 0 264.5 -59.5t88.5 -177.5q0 -82 -48 -140t-133 -79l185 -369h-224l-157 338h-99v-338h-200v825zM854 1356q-127 0 -236 -44.5t-196 -131.5q-91 -91 -140 -206.5t-49 -238.5
q0 -124 46 -235.5t133 -198.5q89 -91 203 -139.5t237 -48.5q120 0 233.5 47t206.5 135q87 84 135 196t48 232q0 133 -44.5 245t-132.5 201q-90 93 -202.5 140t-241.5 47zM852 1479q154 0 290.5 -57.5t243.5 -166.5q103 -104 157 -238t54 -284q0 -152 -56 -287.5t-163 -238.5
q-107 -105 -243.5 -161t-282.5 -56q-149 0 -285 58t-243 167q-104 105 -158.5 238.5t-54.5 279.5q0 102 27 198.5t81 188.5q101 170 267 264.5t366 94.5z" />
    <glyph glyph-name="macron" unicode="&#xaf;" 
d="M971 1305h-920v213h920v-213z" />
    <glyph glyph-name="degree" unicode="&#xb0;" horiz-adv-x="674" 
d="M338 1335q-73 0 -124.5 -51t-51.5 -123q0 -74 51 -125t125 -51q72 0 123 52t51 124t-51 123t-123 51zM338 1464q126 0 214.5 -89.5t88.5 -215.5q0 -125 -89 -214t-216 -89q-126 0 -213.5 88t-87.5 215t88.5 216t214.5 89z" />
    <glyph glyph-name="plusminus" unicode="&#xb1;" horiz-adv-x="1706" 
d="M254 197h1198v-199h-1198v199zM752 1223h202v-326h498v-199h-498v-325h-202v325h-498v199h498v326z" />
    <glyph glyph-name="twosuperior" unicode="&#xb2;" horiz-adv-x="985" 
d="M74 575v27q0 93 28.5 162.5t90.5 128.5q35 36 305 164l12 6q7 3 20 9q132 61 132 118q0 47 -41 71.5t-121 24.5q-88 0 -133.5 -38t-47.5 -111h-243q3 154 114.5 240.5t309.5 86.5q196 0 304.5 -70.5t108.5 -197.5q0 -80 -52.5 -141t-176.5 -121q-43 -21 -118 -55
q-182 -83 -193 -119h520v-185h-819z" />
    <glyph glyph-name="threesuperior" unicode="&#xb3;" horiz-adv-x="985" 
d="M43 881h244v-7q0 -73 50 -109t152 -36q95 0 142 28t47 85q0 56 -49 79t-174 23q-24 0 -37 -0.5t-24 -1.5l-1 164q9 0 24.5 -1t22.5 -1q118 0 165.5 22t47.5 74q0 48 -45 74t-127 26q-90 0 -133 -32t-43 -101v-4h-241q5 144 116.5 221.5t313.5 77.5q188 0 292.5 -63
t104.5 -176q0 -64 -32.5 -108.5t-100.5 -76.5q83 -28 124.5 -79t41.5 -128q0 -127 -123.5 -202.5t-335.5 -75.5q-202 0 -312 82.5t-110 232.5v13z" />
    <glyph glyph-name="acute" unicode="&#xb4;" 
d="M322 1253l151 318h434l-325 -318h-260z" />
    <glyph glyph-name="mu" unicode="&#xb5;" horiz-adv-x="1249" 
d="M205 1092h289l-76 -435q-15 -80 -23 -151.5t-8 -116.5q0 -93 42 -138.5t128 -45.5q100 0 155.5 82t92.5 291l90 514h289l-193 -1092h-268l18 117q-42 -78 -93.5 -114t-121.5 -36q-67 0 -119 29.5t-94 91.5l-90 -526h-286z" />
    <glyph glyph-name="paragraph" unicode="&#xb6;" 
d="M983 1479v-111h-113v-1368h-151v1368h-158v-1368h-153v784q-167 6 -267 101t-100 245q0 158 107 253.5t284 95.5h551z" />
    <glyph glyph-name="glyph121" unicode="&#xb7;" horiz-adv-x="748" 
d="M150 721q0 94 64.5 158.5t158.5 64.5q93 0 158 -64.5t65 -158.5t-65 -158.5t-158 -64.5q-94 0 -158.5 64.5t-64.5 158.5z" />
    <glyph glyph-name="cedilla" unicode="&#xb8;" 
d="M215 -408l35 93q71 -19 126 -28t101 -9q47 0 72.5 19t25.5 54q0 28 -21.5 46t-55.5 18q-12 0 -29 -3t-41 -9l-63 39l98 188h133l-73 -122q23 4 46 6.5t45 2.5q80 0 127 -45t47 -121q0 -95 -65 -140.5t-201 -45.5q-62 0 -137 14t-170 43z" />
    <glyph glyph-name="onesuperior" unicode="&#xb9;" horiz-adv-x="985" 
d="M426 575v576h-258v145h20q121 0 183 34t82 110h202v-865h-229z" />
    <glyph glyph-name="ordmasculine" unicode="&#xba;" horiz-adv-x="1145" 
d="M328 1092q0 -102 66.5 -163t178.5 -61t178 61.5t66 164.5q0 102 -65.5 162.5t-178.5 60.5q-112 0 -178.5 -61.5t-66.5 -163.5zM49 1094q0 191 140.5 302t383.5 111t383 -111t140 -302q0 -192 -140 -303t-383 -111t-383.5 111t-140.5 303z" />
    <glyph glyph-name="guillemotright" unicode="&#xbb;" horiz-adv-x="1276" 
d="M580 430l-439 -352v325l197 150l-197 147v326l439 -352v-244zM1139 430l-439 -352v325l197 150l-197 147v326l439 -352v-244z" />
    <glyph glyph-name="onequarter" unicode="&#xbc;" horiz-adv-x="2322" 
d="M1919 322l10 315l-295 -315h285zM1919 0v170h-492v182l457 455h252v-485h145v-152h-145v-170h-217zM504 -39l1079 1518h234l-1080 -1518h-233zM406 633v536h-246v136h20q114 0 174 32t78 103h193v-807h-219z" />
    <glyph glyph-name="onehalf" unicode="&#xbd;" horiz-adv-x="2322" 
d="M1450 0v25q0 87 27 152.5t86 119.5q34 33 275 144l30 14l14 6q129 58 129 112q0 45 -39 68t-114 23q-85 0 -128 -36t-45 -106l-233 1q3 144 109 225t294 81t292 -65.5t104 -183.5q0 -76 -50 -132.5t-167 -111.5q-44 -21 -119 -55q-169 -77 -178 -108l495 -1v-172h-782z
M504 -39l1079 1518h234l-1080 -1518h-233zM406 633v536h-246v136h20q114 0 174 32t78 103h193v-807h-219z" />
    <glyph glyph-name="threequarters" unicode="&#xbe;" horiz-adv-x="2322" 
d="M1919 322l10 315l-295 -315h285zM1919 0v170h-492v182l457 455h252v-485h145v-152h-145v-170h-217zM504 -39l1079 1518h234l-1080 -1518h-233zM41 918h233v-5q0 -70 47 -103.5t146 -33.5q90 0 135 26.5t45 78.5t-47.5 74t-165.5 22q-23 0 -35.5 -0.5t-23.5 -1.5v151h45
q113 0 158 20.5t45 70.5q0 44 -42.5 68t-121.5 24q-86 0 -127 -31t-41 -94v-2h-229q3 133 109.5 205.5t299.5 72.5q179 0 279 -59t100 -164q0 -59 -31 -100.5t-96 -71.5q80 -26 119 -73.5t39 -121.5q0 -119 -117.5 -189.5t-319.5 -70.5q-193 0 -298 77t-105 218v13z" />
    <glyph glyph-name="questiondown" unicode="&#xbf;" horiz-adv-x="1343" 
d="M895 1026v-22q0 -99 -37 -170t-133 -148q-27 -21 -102.5 -67.5t-116.5 -79.5q-27 -22 -41 -54t-14 -69q0 -76 54.5 -118t153.5 -42q130 0 199.5 66.5t69.5 191.5v25h360v-17q0 -278 -162 -419.5t-481 -141.5q-270 0 -422.5 116.5t-152.5 319.5q0 119 54 204t228 204
q8 5 23 15q147 102 147 202v4h373zM897 1479v-355h-375v355h375z" />
    <glyph glyph-name="Agrave" unicode="&#xc0;" horiz-adv-x="1587" 
d="M588 612h391l-199 457zM-72 0l701 1479h356l674 -1479h-412l-135 313h-651l-133 -313h-400zM735 1628l-325 318h434l151 -318h-260z" />
    <glyph glyph-name="Aacute" unicode="&#xc1;" horiz-adv-x="1587" 
d="M588 612h391l-199 457zM-72 0l701 1479h356l674 -1479h-412l-135 313h-651l-133 -313h-400zM615 1628l151 318h434l-325 -318h-260z" />
    <glyph glyph-name="Acircumflex" unicode="&#xc2;" horiz-adv-x="1587" 
d="M588 612h391l-199 457zM-72 0l701 1479h356l674 -1479h-412l-135 313h-651l-133 -313h-400zM995 1946l312 -318h-355l-147 152l-147 -152h-355l312 318h380z" />
    <glyph glyph-name="Atilde" unicode="&#xc3;" horiz-adv-x="1587" 
d="M588 612h391l-199 457zM-72 0l701 1479h356l674 -1479h-412l-135 313h-651l-133 -313h-400zM356 1639v26q0 122 72.5 198.5t186.5 76.5q74 0 180.5 -37t138.5 -37q36 0 57.5 18.5t24.5 50.5l238 1v-27q0 -122 -73 -199.5t-186 -77.5q-74 0 -180.5 37t-138.5 37
q-36 0 -57 -17t-25 -50h-238z" />
    <glyph glyph-name="Adieresis" unicode="&#xc4;" horiz-adv-x="1587" 
d="M588 612h391l-199 457zM-72 0l701 1479h356l674 -1479h-412l-135 313h-651l-133 -313h-400zM1237 1655h-328v264h328v-264zM703 1655h-328v264h328v-264z" />
    <glyph glyph-name="Aring" unicode="&#xc5;" horiz-adv-x="1587" 
d="M696 1755q0 -41 26.5 -65.5t70.5 -24.5t71 25t27 65q0 41 -26.5 64.5t-71.5 23.5t-71 -23.5t-26 -64.5zM506 1753q0 97 77 153t212 56q134 0 210 -56t76 -153q0 -98 -75.5 -153.5t-210.5 -55.5t-212 56t-77 153zM588 612h391l-199 457zM-72 0l701 1479h356l674 -1479
h-412l-135 313h-651l-133 -313h-400z" />
    <glyph glyph-name="AE" unicode="&#xc6;" horiz-adv-x="2460" 
d="M678 612h403v568h-102zM-63 0l788 1479h1659v-299h-942v-250h842v-301h-842v-316h942v-313h-1303v313h-569l-162 -313h-413z" />
    <glyph glyph-name="Ccedilla" unicode="&#xc7;" horiz-adv-x="1907" 
d="M1825 573q-30 -278 -261.5 -445t-590.5 -167q-405 0 -646 211.5t-241 566.5t241 567t646 212q354 0 585.5 -159.5t260.5 -418.5h-404q-37 136 -148.5 205t-293.5 69q-222 0 -350.5 -127t-128.5 -348q0 -220 128 -346.5t351 -126.5q193 0 310.5 81t135.5 226h406z
M657 -408l35 93q71 -19 126 -28t101 -9q47 0 72.5 19t25.5 54q0 28 -21.5 46t-55.5 18q-12 0 -29 -3t-41 -9l-63 39l98 188h133l-73 -122q23 4 46 6.5t45 2.5q80 0 127 -45t47 -121q0 -95 -65 -140.5t-201 -45.5q-62 0 -137 14t-170 43z" />
    <glyph glyph-name="Egrave" unicode="&#xc8;" horiz-adv-x="1554" 
d="M166 0v1479h1313v-299h-942v-250h839v-301h-839v-318h942v-311h-1313zM751 1628l-325 318h434l151 -318h-260z" />
    <glyph glyph-name="Eacute" unicode="&#xc9;" horiz-adv-x="1554" 
d="M166 0v1479h1313v-299h-942v-250h839v-301h-839v-318h942v-311h-1313zM631 1628l151 318h434l-325 -318h-260z" />
    <glyph glyph-name="Ecircumflex" unicode="&#xca;" horiz-adv-x="1554" 
d="M166 0v1479h1313v-299h-942v-250h839v-301h-839v-318h942v-311h-1313zM1011 1946l312 -318h-355l-147 152l-147 -152h-355l312 318h380z" />
    <glyph glyph-name="Edieresis" unicode="&#xcb;" horiz-adv-x="1554" 
d="M166 0v1479h1313v-299h-942v-250h839v-301h-839v-318h942v-311h-1313zM1253 1655h-328v264h328v-264zM719 1655h-328v264h328v-264z" />
    <glyph glyph-name="Igrave" unicode="&#xcc;" horiz-adv-x="711" 
d="M170 0v1479h371v-1479h-371zM286 1628l-325 318h434l151 -318h-260z" />
    <glyph glyph-name="Iacute" unicode="&#xcd;" horiz-adv-x="711" 
d="M170 0v1479h371v-1479h-371zM166 1628l151 318h434l-325 -318h-260z" />
    <glyph glyph-name="Icircumflex" unicode="&#xce;" horiz-adv-x="711" 
d="M170 0v1479h371v-1479h-371zM546 1946l312 -318h-355l-147 152l-147 -152h-355l312 318h380z" />
    <glyph glyph-name="Idieresis" unicode="&#xcf;" horiz-adv-x="711" 
d="M170 0v1479h371v-1479h-371zM788 1655h-328v264h328v-264zM254 1655h-328v264h328v-264z" />
    <glyph glyph-name="Eth" unicode="&#xd0;" horiz-adv-x="1843" 
d="M545 1182v-320h403v-188h-403v-367h307q254 0 386 111.5t132 326.5t-131.5 326t-386.5 111h-307zM176 1479h668q240 0 359.5 -22.5t213.5 -74.5q164 -89 252 -255.5t88 -387.5q0 -220 -88 -386.5t-252 -256.5q-94 -52 -213.5 -74t-359.5 -22h-668v674h-176v188h176v617z
" />
    <glyph glyph-name="Ntilde" unicode="&#xd1;" horiz-adv-x="1882" 
d="M166 0v1479h455l739 -1043v1043h356v-1479h-450l-746 1053v-1053h-354zM493 1639v26q0 122 72.5 198.5t186.5 76.5q74 0 180.5 -37t138.5 -37q36 0 57.5 18.5t24.5 50.5l238 1v-27q0 -122 -73 -199.5t-186 -77.5q-74 0 -180.5 37t-138.5 37q-36 0 -57 -17t-25 -50h-238z
" />
    <glyph glyph-name="Ograve" unicode="&#xd2;" horiz-adv-x="1946" 
d="M973 266q222 0 349.5 126.5t127.5 346.5q0 222 -127.5 348.5t-349.5 126.5t-350.5 -127t-128.5 -348q0 -220 128 -346.5t351 -126.5zM86 739q0 355 241 567t646 212t645 -212t240 -567t-240 -566.5t-645 -211.5t-646 211.5t-241 566.5zM903 1628l-325 318h434l151 -318
h-260z" />
    <glyph glyph-name="Oacute" unicode="&#xd3;" horiz-adv-x="1946" 
d="M973 266q222 0 349.5 126.5t127.5 346.5q0 222 -127.5 348.5t-349.5 126.5t-350.5 -127t-128.5 -348q0 -220 128 -346.5t351 -126.5zM86 739q0 355 241 567t646 212t645 -212t240 -567t-240 -566.5t-645 -211.5t-646 211.5t-241 566.5zM783 1628l151 318h434l-325 -318
h-260z" />
    <glyph glyph-name="Ocircumflex" unicode="&#xd4;" horiz-adv-x="1946" 
d="M973 266q222 0 349.5 126.5t127.5 346.5q0 222 -127.5 348.5t-349.5 126.5t-350.5 -127t-128.5 -348q0 -220 128 -346.5t351 -126.5zM86 739q0 355 241 567t646 212t645 -212t240 -567t-240 -566.5t-645 -211.5t-646 211.5t-241 566.5zM1163 1946l312 -318h-355l-147 152
l-147 -152h-355l312 318h380z" />
    <glyph glyph-name="Otilde" unicode="&#xd5;" horiz-adv-x="1946" 
d="M973 266q222 0 349.5 126.5t127.5 346.5q0 222 -127.5 348.5t-349.5 126.5t-350.5 -127t-128.5 -348q0 -220 128 -346.5t351 -126.5zM86 739q0 355 241 567t646 212t645 -212t240 -567t-240 -566.5t-645 -211.5t-646 211.5t-241 566.5zM524 1639v26q0 122 72.5 198.5
t186.5 76.5q74 0 180.5 -37t138.5 -37q36 0 57.5 18.5t24.5 50.5l238 1v-27q0 -122 -73 -199.5t-186 -77.5q-74 0 -180.5 37t-138.5 37q-36 0 -57 -17t-25 -50h-238z" />
    <glyph glyph-name="Odieresis" unicode="&#xd6;" horiz-adv-x="1946" 
d="M973 266q222 0 349.5 126.5t127.5 346.5q0 222 -127.5 348.5t-349.5 126.5t-350.5 -127t-128.5 -348q0 -220 128 -346.5t351 -126.5zM86 739q0 355 241 567t646 212t645 -212t240 -567t-240 -566.5t-645 -211.5t-646 211.5t-241 566.5zM1405 1655h-328v264h328v-264z
M871 1655h-328v264h328v-264z" />
    <glyph glyph-name="multiply" unicode="&#xd7;" horiz-adv-x="1706" 
d="M416 1202l450 -450l451 450l141 -139l-450 -453l450 -450l-141 -140l-451 451l-450 -451l-140 140l451 450l-451 453z" />
    <glyph glyph-name="Oslash" unicode="&#xd8;" horiz-adv-x="1946" 
d="M553 479l711 654q-66 41 -138 61t-153 20q-222 0 -350.5 -127t-128.5 -348q0 -82 14.5 -145.5t44.5 -114.5zM1391 997l-707 -653q55 -38 129 -58t160 -20q223 0 350 126t127 347q0 80 -15 146t-44 112zM276 221q-96 106 -143 234t-47 284q0 355 241 567t646 212
q163 0 303 -36.5t246 -105.5l192 176l129 -137l-174 -162q93 -98 141 -227.5t48 -286.5q0 -355 -240 -566.5t-645 -211.5q-165 0 -306 36.5t-243 104.5l-205 -190l-121 141z" />
    <glyph glyph-name="Ugrave" unicode="&#xd9;" horiz-adv-x="1847" 
d="M535 1479v-795q0 -218 92 -317t295 -99q108 0 188 30.5t129 90.5q39 47 55.5 107.5t16.5 187.5v795h368v-834q0 -336 -192 -510t-565 -174q-372 0 -564 174t-192 510v834h369zM854 1628l-325 318h434l151 -318h-260z" />
    <glyph glyph-name="Uacute" unicode="&#xda;" horiz-adv-x="1847" 
d="M535 1479v-795q0 -218 92 -317t295 -99q108 0 188 30.5t129 90.5q39 47 55.5 107.5t16.5 187.5v795h368v-834q0 -336 -192 -510t-565 -174q-372 0 -564 174t-192 510v834h369zM734 1628l151 318h434l-325 -318h-260z" />
    <glyph glyph-name="Ucircumflex" unicode="&#xdb;" horiz-adv-x="1847" 
d="M535 1479v-795q0 -218 92 -317t295 -99q108 0 188 30.5t129 90.5q39 47 55.5 107.5t16.5 187.5v795h368v-834q0 -336 -192 -510t-565 -174q-372 0 -564 174t-192 510v834h369zM1114 1946l312 -318h-355l-147 152l-147 -152h-355l312 318h380z" />
    <glyph glyph-name="Udieresis" unicode="&#xdc;" horiz-adv-x="1847" 
d="M535 1479v-795q0 -218 92 -317t295 -99q108 0 188 30.5t129 90.5q39 47 55.5 107.5t16.5 187.5v795h368v-834q0 -336 -192 -510t-565 -174q-372 0 -564 174t-192 510v834h369zM1356 1655h-328v264h328v-264zM822 1655h-328v264h328v-264z" />
    <glyph glyph-name="Yacute" unicode="&#xdd;" horiz-adv-x="1456" 
d="M537 0v631l-646 848h471l369 -529l365 529h469l-658 -848v-631h-370zM539 1628l151 318h434l-325 -318h-260z" />
    <glyph glyph-name="Thorn" unicode="&#xde;" horiz-adv-x="1645" 
d="M537 539h340q187 0 262 47t75 159q0 117 -66 163t-247 46h-364v-415zM166 0v1479h371v-222h505q258 0 402.5 -133t144.5 -370q0 -238 -144 -371t-403 -133h-505v-250h-371z" />
    <glyph glyph-name="germandbls" unicode="&#xdf;" horiz-adv-x="1503" 
d="M137 0v907q0 306 138.5 439t457.5 133q273 0 422.5 -106.5t149.5 -301.5q0 -85 -42.5 -150.5t-132.5 -119.5q120 -48 179 -133t59 -211q0 -229 -152 -347t-448 -118q-42 0 -82 2t-82 6v248h82q166 0 246 50.5t80 154.5q0 105 -67.5 149.5t-237.5 44.5h-86v248h73
q136 0 195 36.5t59 119.5q0 74 -56 117.5t-153 43.5q-138 0 -199 -74t-61 -243v-895h-342z" />
    <glyph glyph-name="agrave" unicode="&#xe0;" horiz-adv-x="1526" 
d="M1050 532q-64 -35 -245 -53q-22 -3 -33 -4q-193 -20 -244 -49t-51 -90q0 -64 50.5 -102.5t134.5 -38.5q174 0 282.5 83t108.5 216q0 16 -0.5 24t-2.5 14zM1384 178q0 -65 12 -99.5t40 -53.5v-25h-377l-17 121q-89 -82 -201 -121t-259 -39q-228 0 -359 99t-131 268
q0 157 118 234.5t405 101.5q38 3 106 7q330 23 330 128q0 63 -63.5 94t-190.5 31q-128 0 -188 -44.5t-62 -139.5l-357 -1v4q0 195 161 297.5t466 102.5q150 0 265.5 -29.5t193.5 -87.5q59 -45 83.5 -113.5t24.5 -207.5v-527zM755 1253l-325 318h434l151 -318h-260z" />
    <glyph glyph-name="aacute" unicode="&#xe1;" horiz-adv-x="1526" 
d="M1050 532q-64 -35 -245 -53q-22 -3 -33 -4q-193 -20 -244 -49t-51 -90q0 -64 50.5 -102.5t134.5 -38.5q174 0 282.5 83t108.5 216q0 16 -0.5 24t-2.5 14zM1384 178q0 -65 12 -99.5t40 -53.5v-25h-377l-17 121q-89 -82 -201 -121t-259 -39q-228 0 -359 99t-131 268
q0 157 118 234.5t405 101.5q38 3 106 7q330 23 330 128q0 63 -63.5 94t-190.5 31q-128 0 -188 -44.5t-62 -139.5l-357 -1v4q0 195 161 297.5t466 102.5q150 0 265.5 -29.5t193.5 -87.5q59 -45 83.5 -113.5t24.5 -207.5v-527zM635 1253l151 318h434l-325 -318h-260z" />
    <glyph glyph-name="acircumflex" unicode="&#xe2;" horiz-adv-x="1526" 
d="M1050 532q-64 -35 -245 -53q-22 -3 -33 -4q-193 -20 -244 -49t-51 -90q0 -64 50.5 -102.5t134.5 -38.5q174 0 282.5 83t108.5 216q0 16 -0.5 24t-2.5 14zM1384 178q0 -65 12 -99.5t40 -53.5v-25h-377l-17 121q-89 -82 -201 -121t-259 -39q-228 0 -359 99t-131 268
q0 157 118 234.5t405 101.5q38 3 106 7q330 23 330 128q0 63 -63.5 94t-190.5 31q-128 0 -188 -44.5t-62 -139.5l-357 -1v4q0 195 161 297.5t466 102.5q150 0 265.5 -29.5t193.5 -87.5q59 -45 83.5 -113.5t24.5 -207.5v-527zM1015 1571l312 -318h-355l-147 152l-147 -152
h-355l312 318h380z" />
    <glyph glyph-name="atilde" unicode="&#xe3;" horiz-adv-x="1526" 
d="M1050 532q-64 -35 -245 -53q-22 -3 -33 -4q-193 -20 -244 -49t-51 -90q0 -64 50.5 -102.5t134.5 -38.5q174 0 282.5 83t108.5 216q0 16 -0.5 24t-2.5 14zM1384 178q0 -65 12 -99.5t40 -53.5v-25h-377l-17 121q-89 -82 -201 -121t-259 -39q-228 0 -359 99t-131 268
q0 157 118 234.5t405 101.5q38 3 106 7q330 23 330 128q0 63 -63.5 94t-190.5 31q-128 0 -188 -44.5t-62 -139.5l-357 -1v4q0 195 161 297.5t466 102.5q150 0 265.5 -29.5t193.5 -87.5q59 -45 83.5 -113.5t24.5 -207.5v-527zM376 1264v26q0 122 72.5 198.5t186.5 76.5
q74 0 180.5 -37t138.5 -37q36 0 57.5 18.5t24.5 50.5l238 1v-27q0 -122 -73 -199.5t-186 -77.5q-74 0 -180.5 37t-138.5 37q-36 0 -57 -17t-25 -50h-238z" />
    <glyph glyph-name="adieresis" unicode="&#xe4;" horiz-adv-x="1526" 
d="M1050 532q-64 -35 -245 -53q-22 -3 -33 -4q-193 -20 -244 -49t-51 -90q0 -64 50.5 -102.5t134.5 -38.5q174 0 282.5 83t108.5 216q0 16 -0.5 24t-2.5 14zM1384 178q0 -65 12 -99.5t40 -53.5v-25h-377l-17 121q-89 -82 -201 -121t-259 -39q-228 0 -359 99t-131 268
q0 157 118 234.5t405 101.5q38 3 106 7q330 23 330 128q0 63 -63.5 94t-190.5 31q-128 0 -188 -44.5t-62 -139.5l-357 -1v4q0 195 161 297.5t466 102.5q150 0 265.5 -29.5t193.5 -87.5q59 -45 83.5 -113.5t24.5 -207.5v-527zM1257 1280h-328v264h328v-264zM723 1280h-328
v264h328v-264z" />
    <glyph glyph-name="aring" unicode="&#xe5;" horiz-adv-x="1526" 
d="M719 1419q0 -40 27 -65t71 -25t71 25t27 65q0 41 -26.5 65.5t-71.5 24.5t-71.5 -24.5t-26.5 -65.5zM530 1419q0 98 76.5 153.5t210.5 55.5q135 0 212 -56t77 -153q0 -98 -76.5 -153.5t-212.5 -55.5q-134 0 -210.5 56t-76.5 153zM1050 532q-64 -35 -245 -53q-22 -3 -33 -4
q-193 -20 -244 -49t-51 -90q0 -64 50.5 -102.5t134.5 -38.5q174 0 282.5 83t108.5 216q0 16 -0.5 24t-2.5 14zM1384 178q0 -65 12 -99.5t40 -53.5v-25h-377l-17 121q-89 -82 -201 -121t-259 -39q-228 0 -359 99t-131 268q0 157 118 234.5t405 101.5q38 3 106 7
q330 23 330 128q0 63 -63.5 94t-190.5 31q-128 0 -188 -44.5t-62 -139.5l-357 -1v4q0 195 161 297.5t466 102.5q150 0 265.5 -29.5t193.5 -87.5q59 -45 83.5 -113.5t24.5 -207.5v-527z" />
    <glyph glyph-name="ae" unicode="&#xe6;" horiz-adv-x="2394" 
d="M1395 698h553q-11 102 -85 159.5t-192 57.5t-191.5 -57.5t-84.5 -159.5zM1137 174q-94 -109 -227.5 -161t-319.5 -52q-234 0 -366 97.5t-132 269.5q0 157 118 234.5t405 101.5q41 3 115 8q321 21 321 125q0 63 -64 95t-190 32q-129 0 -188.5 -44t-61.5 -140l-357 -1v11
q0 185 160.5 289t448.5 104q151 0 265 -26t189 -77q79 51 182.5 77t227.5 26q321 0 492.5 -162t171.5 -465v-41h-943q0 -120 76.5 -193t202.5 -73q98 0 168.5 40.5t101.5 115.5h375q-69 -194 -236.5 -299t-408.5 -105q-174 0 -304 53t-222 160zM1050 524q-62 -35 -246 -54
q-21 -2 -32 -3q-193 -20 -244 -49t-51 -90q0 -64 51 -104t134 -40q173 0 282 84t109 217q0 16 -0.5 24t-2.5 15z" />
    <glyph glyph-name="ccedilla" unicode="&#xe7;" horiz-adv-x="1475" 
d="M1413 449q-17 -218 -202 -353t-472 -135q-304 0 -488.5 162t-184.5 430q0 274 186.5 432t511.5 158q281 0 445 -119.5t192 -343.5h-377q-14 96 -86.5 147.5t-194.5 51.5q-139 0 -223 -89.5t-84 -238.5t83.5 -237.5t223.5 -88.5q118 0 196.5 62.5t86.5 161.5h387z
M440 -408l35 93q71 -19 126 -28t101 -9q47 0 72.5 19t25.5 54q0 28 -21.5 46t-55.5 18q-12 0 -29 -3t-41 -9l-63 39l98 188h133l-73 -122q23 4 46 6.5t45 2.5q80 0 127 -45t47 -121q0 -95 -65 -140.5t-201 -45.5q-62 0 -137 14t-170 43z" />
    <glyph glyph-name="egrave" unicode="&#xe8;" horiz-adv-x="1460" 
d="M461 693l552 -1q-9 103 -83 162t-193 59q-118 0 -192.5 -59.5t-83.5 -160.5zM1374 358q-68 -190 -236 -293.5t-409 -103.5q-306 0 -484.5 159.5t-178.5 432.5t178 431.5t485 158.5q319 0 491.5 -164.5t172.5 -468.5v-47h-942q3 -121 78.5 -192.5t199.5 -71.5
q97 0 167 41.5t101 117.5h377zM696 1253l-325 318h434l151 -318h-260z" />
    <glyph glyph-name="eacute" unicode="&#xe9;" horiz-adv-x="1460" 
d="M461 693l552 -1q-9 103 -83 162t-193 59q-118 0 -192.5 -59.5t-83.5 -160.5zM1374 358q-68 -190 -236 -293.5t-409 -103.5q-306 0 -484.5 159.5t-178.5 432.5t178 431.5t485 158.5q319 0 491.5 -164.5t172.5 -468.5v-47h-942q3 -121 78.5 -192.5t199.5 -71.5
q97 0 167 41.5t101 117.5h377zM576 1253l151 318h434l-325 -318h-260z" />
    <glyph glyph-name="ecircumflex" unicode="&#xea;" horiz-adv-x="1460" 
d="M461 693l552 -1q-9 103 -83 162t-193 59q-118 0 -192.5 -59.5t-83.5 -160.5zM1374 358q-68 -190 -236 -293.5t-409 -103.5q-306 0 -484.5 159.5t-178.5 432.5t178 431.5t485 158.5q319 0 491.5 -164.5t172.5 -468.5v-47h-942q3 -121 78.5 -192.5t199.5 -71.5
q97 0 167 41.5t101 117.5h377zM956 1571l312 -318h-355l-147 152l-147 -152h-355l312 318h380z" />
    <glyph glyph-name="edieresis" unicode="&#xeb;" horiz-adv-x="1460" 
d="M461 693l552 -1q-9 103 -83 162t-193 59q-118 0 -192.5 -59.5t-83.5 -160.5zM1374 358q-68 -190 -236 -293.5t-409 -103.5q-306 0 -484.5 159.5t-178.5 432.5t178 431.5t485 158.5q319 0 491.5 -164.5t172.5 -468.5v-47h-942q3 -121 78.5 -192.5t199.5 -71.5
q97 0 167 41.5t101 117.5h377zM1198 1280h-328v264h328v-264zM664 1280h-328v264h328v-264z" />
    <glyph glyph-name="igrave" unicode="&#xec;" horiz-adv-x="664" 
d="M162 0v1104h340v-1104h-340zM262 1253l-325 318h434l151 -318h-260z" />
    <glyph glyph-name="iacute" unicode="&#xed;" horiz-adv-x="664" 
d="M162 0v1104h340v-1104h-340zM142 1253l151 318h434l-325 -318h-260z" />
    <glyph glyph-name="icircumflex" unicode="&#xee;" horiz-adv-x="664" 
d="M162 0v1104h340v-1104h-340zM522 1571l312 -318h-355l-147 152l-147 -152h-355l312 318h380z" />
    <glyph glyph-name="idieresis" unicode="&#xef;" horiz-adv-x="664" 
d="M162 0v1104h340v-1104h-340zM764 1280h-328v264h328v-264zM230 1280h-328v264h328v-264z" />
    <glyph glyph-name="eth" unicode="&#xf0;" horiz-adv-x="1526" 
d="M911 1028q-38 57 -72.5 101.5t-62.5 74.5l-379 -143l-39 119l326 125q-18 20 -36.5 39t-39.5 38l191 166q58 -48 101 -85.5t65 -59.5l272 102l51 -116l-227 -89q201 -207 300 -404.5t99 -389.5q0 -254 -185 -398.5t-511 -144.5q-325 0 -511.5 144t-186.5 393
q0 248 184 392t506 144q41 0 79.5 -2t75.5 -6zM436 506q0 -124 89.5 -199.5t238.5 -75.5q148 0 237 75t89 200q0 126 -88.5 201t-237.5 75t-238.5 -75.5t-89.5 -200.5z" />
    <glyph glyph-name="ntilde" unicode="&#xf1;" horiz-adv-x="1518" 
d="M139 0v1104h342v-166q91 97 199 146t231 49q139 0 244 -46t162 -131q35 -53 50 -124.5t15 -223.5v-608h-342v535q0 185 -53.5 254t-185.5 69q-149 0 -234.5 -83.5t-85.5 -229.5v-545h-342zM311 1264v26q0 122 72.5 198.5t186.5 76.5q74 0 180.5 -37t138.5 -37
q36 0 57.5 18.5t24.5 50.5l238 1v-27q0 -122 -73 -199.5t-186 -77.5q-74 0 -180.5 37t-138.5 37q-36 0 -57 -17t-25 -50h-238z" />
    <glyph glyph-name="ograve" unicode="&#xf2;" horiz-adv-x="1526" 
d="M436 551q0 -146 89.5 -233t238.5 -87q148 0 237 87.5t89 234.5q0 146 -88.5 232.5t-237.5 86.5t-238.5 -87.5t-89.5 -233.5zM66 553q0 274 186.5 432t511.5 158q324 0 510 -158t186 -432t-186.5 -433t-509.5 -159t-510.5 159t-187.5 433zM694 1253l-325 318h434l151 -318
h-260z" />
    <glyph glyph-name="oacute" unicode="&#xf3;" horiz-adv-x="1526" 
d="M436 551q0 -146 89.5 -233t238.5 -87q148 0 237 87.5t89 234.5q0 146 -88.5 232.5t-237.5 86.5t-238.5 -87.5t-89.5 -233.5zM66 553q0 274 186.5 432t511.5 158q324 0 510 -158t186 -432t-186.5 -433t-509.5 -159t-510.5 159t-187.5 433zM574 1253l151 318h434l-325 -318
h-260z" />
    <glyph glyph-name="ocircumflex" unicode="&#xf4;" horiz-adv-x="1526" 
d="M436 551q0 -146 89.5 -233t238.5 -87q148 0 237 87.5t89 234.5q0 146 -88.5 232.5t-237.5 86.5t-238.5 -87.5t-89.5 -233.5zM66 553q0 274 186.5 432t511.5 158q324 0 510 -158t186 -432t-186.5 -433t-509.5 -159t-510.5 159t-187.5 433zM954 1571l312 -318h-355
l-147 152l-147 -152h-355l312 318h380z" />
    <glyph glyph-name="otilde" unicode="&#xf5;" horiz-adv-x="1526" 
d="M436 551q0 -146 89.5 -233t238.5 -87q148 0 237 87.5t89 234.5q0 146 -88.5 232.5t-237.5 86.5t-238.5 -87.5t-89.5 -233.5zM66 553q0 274 186.5 432t511.5 158q324 0 510 -158t186 -432t-186.5 -433t-509.5 -159t-510.5 159t-187.5 433zM315 1264v26q0 122 72.5 198.5
t186.5 76.5q74 0 180.5 -37t138.5 -37q36 0 57.5 18.5t24.5 50.5l238 1v-27q0 -122 -73 -199.5t-186 -77.5q-74 0 -180.5 37t-138.5 37q-36 0 -57 -17t-25 -50h-238z" />
    <glyph glyph-name="odieresis" unicode="&#xf6;" horiz-adv-x="1526" 
d="M436 551q0 -146 89.5 -233t238.5 -87q148 0 237 87.5t89 234.5q0 146 -88.5 232.5t-237.5 86.5t-238.5 -87.5t-89.5 -233.5zM66 553q0 274 186.5 432t511.5 158q324 0 510 -158t186 -432t-186.5 -433t-509.5 -159t-510.5 159t-187.5 433zM1196 1280h-328v264h328v-264z
M662 1280h-328v264h328v-264z" />
    <glyph glyph-name="divide" unicode="&#xf7;" horiz-adv-x="1706" 
d="M854 369q62 0 107 -45t45 -107q0 -61 -45 -105t-107 -44q-63 0 -107.5 43t-44.5 106t44.5 107.5t107.5 44.5zM254 711h1198v-199h-1198v199zM854 1155q62 0 107 -44.5t45 -106.5q0 -63 -44.5 -107.5t-107.5 -44.5t-107.5 44.5t-44.5 107.5t44.5 107t107.5 44z" />
    <glyph glyph-name="oslash" unicode="&#xf8;" horiz-adv-x="1526" 
d="M475 383l481 438q-44 26 -91 38.5t-101 12.5q-149 0 -238.5 -87.5t-89.5 -233.5q0 -48 9.5 -89t29.5 -79zM1059 702l-469 -432q38 -19 82 -29t92 -10q152 0 240 89t88 241q0 42 -8 76.5t-25 64.5zM223 154q-79 70 -118 169t-39 230q0 274 186.5 432t511.5 158
q129 0 236 -25t194 -76l121 107l106 -115l-100 -94q69 -78 104 -175.5t35 -211.5q0 -274 -186.5 -433t-509.5 -159q-133 0 -238.5 25t-171.5 71l-155 -145l-105 121z" />
    <glyph glyph-name="ugrave" unicode="&#xf9;" horiz-adv-x="1518" 
d="M1382 1104v-1104h-342v166q-89 -97 -195.5 -145t-234.5 -48q-141 0 -244.5 44.5t-160.5 129.5q-36 54 -51 125t-15 224v608h342v-535q0 -184 53.5 -252.5t186.5 -68.5q149 0 234 82.5t85 228.5v545h342zM690 1253l-325 318h434l151 -318h-260z" />
    <glyph glyph-name="uacute" unicode="&#xfa;" horiz-adv-x="1518" 
d="M1382 1104v-1104h-342v166q-89 -97 -195.5 -145t-234.5 -48q-141 0 -244.5 44.5t-160.5 129.5q-36 54 -51 125t-15 224v608h342v-535q0 -184 53.5 -252.5t186.5 -68.5q149 0 234 82.5t85 228.5v545h342zM570 1253l151 318h434l-325 -318h-260z" />
    <glyph glyph-name="ucircumflex" unicode="&#xfb;" horiz-adv-x="1518" 
d="M1382 1104v-1104h-342v166q-89 -97 -195.5 -145t-234.5 -48q-141 0 -244.5 44.5t-160.5 129.5q-36 54 -51 125t-15 224v608h342v-535q0 -184 53.5 -252.5t186.5 -68.5q149 0 234 82.5t85 228.5v545h342zM950 1571l312 -318h-355l-147 152l-147 -152h-355l312 318h380z
" />
    <glyph glyph-name="udieresis" unicode="&#xfc;" horiz-adv-x="1518" 
d="M1382 1104v-1104h-342v166q-89 -97 -195.5 -145t-234.5 -48q-141 0 -244.5 44.5t-160.5 129.5q-36 54 -51 125t-15 224v608h342v-535q0 -184 53.5 -252.5t186.5 -68.5q149 0 234 82.5t85 228.5v545h342zM1192 1280h-328v264h328v-264zM658 1280h-328v264h328v-264z" />
    <glyph glyph-name="yacute" unicode="&#xfd;" horiz-adv-x="1298" 
d="M131 -389v303h197q64 0 96.5 25.5t32.5 74.5q0 21 -3.5 38.5t-9.5 31.5l-479 1020h381l295 -711l320 711h376l-618 -1266q-38 -76 -81 -126t-93 -74q-29 -15 -66.5 -21t-109.5 -6h-56h-182zM459 1253l151 318h434l-325 -318h-260z" />
    <glyph glyph-name="thorn" unicode="&#xfe;" horiz-adv-x="1569" 
d="M485 551q0 -143 88 -228t236 -85q149 0 236.5 84.5t87.5 230.5q0 144 -88 228.5t-236 84.5q-147 0 -235.5 -86t-88.5 -229zM145 -389v1868h340v-486q69 71 166 105.5t226 34.5q277 0 450.5 -161.5t173.5 -418.5q0 -261 -174 -421.5t-457 -160.5q-125 0 -220 35.5
t-165 108.5v-504h-340z" />
    <glyph glyph-name="ydieresis" unicode="&#xff;" horiz-adv-x="1298" 
d="M131 -389v303h197q64 0 96.5 25.5t32.5 74.5q0 21 -3.5 38.5t-9.5 31.5l-479 1020h381l295 -711l320 711h376l-618 -1266q-38 -76 -81 -126t-93 -74q-29 -15 -66.5 -21t-109.5 -6h-56h-182zM1081 1280h-328v264h328v-264zM547 1280h-328v264h328v-264z" />
    <glyph glyph-name="Cacute" unicode="&#x106;" horiz-adv-x="1907" 
d="M1825 573q-30 -278 -261.5 -445t-590.5 -167q-405 0 -646 211.5t-241 566.5t241 567t646 212q354 0 585.5 -159.5t260.5 -418.5h-404q-37 136 -148.5 205t-293.5 69q-222 0 -350.5 -127t-128.5 -348q0 -220 128 -346.5t351 -126.5q193 0 310.5 81t135.5 226h406z
M809 1628l151 318h434l-325 -318h-260z" />
    <glyph glyph-name="cacute" unicode="&#x107;" horiz-adv-x="1475" 
d="M1413 449q-17 -218 -202 -353t-472 -135q-304 0 -488.5 162t-184.5 430q0 274 186.5 432t511.5 158q281 0 445 -119.5t192 -343.5h-377q-14 96 -86.5 147.5t-194.5 51.5q-139 0 -223 -89.5t-84 -238.5t83.5 -237.5t223.5 -88.5q118 0 196.5 62.5t86.5 161.5h387z
M574 1253l151 318h434l-325 -318h-260z" />
    <glyph glyph-name="Ccaron" unicode="&#x10c;" horiz-adv-x="1907" 
d="M1825 573q-30 -278 -261.5 -445t-590.5 -167q-405 0 -646 211.5t-241 566.5t241 567t646 212q354 0 585.5 -159.5t260.5 -418.5h-404q-37 136 -148.5 205t-293.5 69q-222 0 -350.5 -127t-128.5 -348q0 -220 128 -346.5t351 -126.5q193 0 310.5 81t135.5 226h406z
M809 1628l-312 318h355l147 -152l147 152h355l-312 -318h-380z" />
    <glyph glyph-name="ccaron" unicode="&#x10d;" horiz-adv-x="1475" 
d="M1413 449q-17 -218 -202 -353t-472 -135q-304 0 -488.5 162t-184.5 430q0 274 186.5 432t511.5 158q281 0 445 -119.5t192 -343.5h-377q-14 96 -86.5 147.5t-194.5 51.5q-139 0 -223 -89.5t-84 -238.5t83.5 -237.5t223.5 -88.5q118 0 196.5 62.5t86.5 161.5h387z
M574 1253l-312 318h355l147 -152l147 152h355l-312 -318h-380z" />
    <glyph glyph-name="dcroat" unicode="&#x111;" horiz-adv-x="1579" 
d="M1083 539q0 142 -88 227.5t-235 85.5q-149 0 -236.5 -85.5t-87.5 -229.5q0 -145 87.5 -229.5t236.5 -84.5q147 0 235 85.5t88 230.5zM1083 975v244h-378v141h378v119h342v-119h154v-141h-154v-1219h-342v102q-74 -72 -167 -105.5t-224 -33.5q-276 0 -450 161.5
t-174 416.5q0 258 174.5 417.5t455.5 159.5q126 0 221 -35t164 -108z" />
    <glyph glyph-name="Gbreve" unicode="&#x11e;" horiz-adv-x="1958" 
d="M1499 166q-106 -103 -241.5 -154t-305.5 -51q-171 0 -324 48t-266 136q-139 110 -207.5 256.5t-68.5 337.5q0 355 241 567t646 212q342 0 570 -152.5t261 -398.5h-403q-51 124 -157.5 185.5t-270.5 61.5q-222 0 -350.5 -127t-128.5 -348q0 -220 128 -346.5t351 -126.5
q152 0 267 65t167 179h-336v295h729v-805h-280zM1411 1958q-12 -156 -129 -249t-303 -93t-303 93t-129 249h246q14 -53 63 -83t123 -30t123 30t63 83h246z" />
    <glyph glyph-name="gbreve" unicode="&#x11f;" horiz-adv-x="1569" 
d="M1083 590q0 135 -87.5 215t-235.5 80q-149 0 -236.5 -80t-87.5 -215t87.5 -215t236.5 -80q148 0 235.5 80t87.5 215zM1425 197q0 -192 -28 -274t-94 -144q-94 -86 -228.5 -127t-324.5 -41q-292 0 -440 91.5t-148 272.5v19h342q0 -70 61 -104.5t187 -34.5
q186 0 258.5 55.5t72.5 195.5v74q-69 -67 -163 -100t-220 -33q-283 0 -457.5 150t-174.5 393q0 240 174 392.5t452 152.5q130 0 224.5 -32t164.5 -99v100h342v-907zM1216 1583q-12 -156 -129 -249t-303 -93t-303 93t-129 249h246q14 -53 63 -83t123 -30t123 30t63 83h246z
" />
    <glyph glyph-name="Idotaccent" unicode="&#x130;" horiz-adv-x="711" 
d="M170 0v1479h371v-1479h-371zM227 1663v248h260v-248h-260z" />
    <glyph glyph-name="dotlessi" unicode="&#x131;" horiz-adv-x="664" 
d="M162 0v1104h340v-1104h-340z" />
    <glyph glyph-name="Lslash" unicode="&#x141;" horiz-adv-x="1368" 
d="M176 0v557l-125 -84l-98 145l223 160v701h371v-498l282 201l109 -150l-391 -268v-453h762v-311h-1133z" />
    <glyph glyph-name="lslash" unicode="&#x142;" horiz-adv-x="682" 
d="M170 0v586l-143 -99l-74 107l217 156v729h342v-539l139 100l80 -112l-219 -148v-780h-342z" />
    <glyph glyph-name="OE" unicode="&#x152;" horiz-adv-x="2720" 
d="M1331 459v561q-76 98 -169 146t-206 48q-210 0 -336 -129t-126 -346q0 -216 126 -344.5t336 -128.5q114 0 207 48t168 145zM1331 1479h1313v-299h-944v-250h842v-301h-842v-318h944v-311h-1313v100q-62 -67 -179.5 -103t-274.5 -36q-363 0 -577 211t-214 567
q0 357 214.5 568t578.5 211q149 0 261.5 -37.5t190.5 -112.5v111z" />
    <glyph glyph-name="oe" unicode="&#x153;" horiz-adv-x="2474" 
d="M436 551q0 -146 89.5 -233t238.5 -87q148 0 237 87.5t89 234.5q0 146 -88.5 232.5t-237.5 86.5t-238.5 -87.5t-89.5 -233.5zM1477 692h552q-9 103 -83 162t-193 59t-193 -59.5t-83 -161.5zM1264 119q-98 -81 -219.5 -119.5t-280.5 -38.5q-323 0 -510.5 159t-187.5 433
t186.5 432t511.5 158q167 0 295 -39.5t205 -114.5q82 77 202.5 115.5t276.5 38.5q319 0 491 -164.5t172 -470.5v-41h-942q0 -122 76.5 -195t202.5 -73q97 0 168 42t102 117h375q-69 -190 -237 -293.5t-408 -103.5q-150 0 -268 39t-211 119z" />
    <glyph glyph-name="Scedilla" unicode="&#x15e;" horiz-adv-x="1759" 
d="M104 512h379v-14q0 -125 110 -190.5t320 -65.5q162 0 250 47.5t88 134.5q0 73 -57.5 107.5t-232.5 52.5l-263 26q-288 30 -423.5 131t-135.5 285q0 218 195.5 355t517.5 137q346 0 541.5 -129t195.5 -353v-12h-368q-13 111 -103.5 166t-259.5 55q-156 0 -242 -44.5
t-86 -125.5q0 -65 50.5 -95t248.5 -52l275 -29q284 -31 417.5 -136.5t133.5 -297.5q0 -247 -200.5 -375.5t-586.5 -128.5q-368 0 -566 135t-198 385v31zM584 -408l35 93q71 -19 126 -28t101 -9q47 0 72.5 19t25.5 54q0 28 -21.5 46t-55.5 18q-12 0 -29 -3t-41 -9l-63 39
l98 188h133l-73 -122q23 4 46 6.5t45 2.5q80 0 127 -45t47 -121q0 -95 -65 -140.5t-201 -45.5q-62 0 -137 14t-170 43z" />
    <glyph glyph-name="scedilla" unicode="&#x15f;" horiz-adv-x="1456" 
d="M98 362h361q8 -83 80.5 -120t228.5 -37q107 0 171.5 30t64.5 78q0 43 -36.5 62t-154.5 28l-309 27q-171 15 -271 106.5t-100 231.5q0 182 154.5 278.5t445.5 96.5q278 0 435 -95.5t157 -263.5v-10h-342q-12 73 -78 108.5t-190 35.5q-104 0 -162.5 -27t-58.5 -74
q0 -45 58 -69t198 -35l239 -19q178 -13 273.5 -98.5t95.5 -230.5q0 -198 -157.5 -301t-461.5 -103q-307 0 -468.5 101t-172.5 300zM432 -408l35 93q71 -19 126 -28t101 -9q47 0 72.5 19t25.5 54q0 28 -21.5 46t-55.5 18q-12 0 -29 -3t-41 -9l-63 39l98 188h133l-73 -122
q23 4 46 6.5t45 2.5q80 0 127 -45t47 -121q0 -95 -65 -140.5t-201 -45.5q-62 0 -137 14t-170 43z" />
    <glyph glyph-name="Scaron" unicode="&#x160;" horiz-adv-x="1759" 
d="M104 512h379v-14q0 -125 110 -190.5t320 -65.5q162 0 250 47.5t88 134.5q0 73 -57.5 107.5t-232.5 52.5l-263 26q-288 30 -423.5 131t-135.5 285q0 218 195.5 355t517.5 137q346 0 541.5 -129t195.5 -353v-12h-368q-13 111 -103.5 166t-259.5 55q-156 0 -242 -44.5
t-86 -125.5q0 -65 50.5 -95t248.5 -52l275 -29q284 -31 417.5 -136.5t133.5 -297.5q0 -247 -200.5 -375.5t-586.5 -128.5q-368 0 -566 135t-198 385v31zM691 1628l-312 318h355l147 -152l147 152h355l-312 -318h-380z" />
    <glyph glyph-name="scaron" unicode="&#x161;" horiz-adv-x="1456" 
d="M98 362h361q8 -83 80.5 -120t228.5 -37q107 0 171.5 30t64.5 78q0 43 -36.5 62t-154.5 28l-309 27q-171 15 -271 106.5t-100 231.5q0 182 154.5 278.5t445.5 96.5q278 0 435 -95.5t157 -263.5v-10h-342q-12 73 -78 108.5t-190 35.5q-104 0 -162.5 -27t-58.5 -74
q0 -45 58 -69t198 -35l239 -19q178 -13 273.5 -98.5t95.5 -230.5q0 -198 -157.5 -301t-461.5 -103q-307 0 -468.5 101t-172.5 300zM539 1253l-312 318h355l147 -152l147 152h355l-312 -318h-380z" />
    <glyph glyph-name="Ydieresis" unicode="&#x178;" horiz-adv-x="1456" 
d="M537 0v631l-646 848h471l369 -529l365 529h469l-658 -848v-631h-370zM1161 1655h-328v264h328v-264zM627 1655h-328v264h328v-264z" />
    <glyph glyph-name="Zcaron" unicode="&#x17d;" horiz-adv-x="1608" 
d="M57 0v319l959 852h-918v308h1452v-308l-972 -868h981v-303h-1502zM615 1628l-312 318h355l147 -152l147 152h355l-312 -318h-380z" />
    <glyph glyph-name="zcaron" unicode="&#x17e;" horiz-adv-x="1309" 
d="M68 0v266l692 574h-643v264h1102v-264l-701 -574h723v-266h-1173zM465 1253l-312 318h355l147 -152l147 152h355l-312 -318h-380z" />
    <glyph glyph-name="florin" unicode="&#x192;" horiz-adv-x="1493" 
d="M197 -143q8 -1 25 -3q62 -6 85 -6q73 0 104.5 29.5t57.5 149.5l117 548h-236l53 246h236l47 230q2 8 5 22q50 245 118 316q44 45 115.5 67.5t175.5 22.5q52 0 117 -7.5t141 -21.5l-62 -287q-8 1 -25 3q-62 5 -85 5q-75 0 -106.5 -30t-55.5 -146l-37 -174h238l-54 -246
h-237l-127 -606q-3 -13 -8 -37q-48 -233 -115 -301q-44 -46 -115.5 -68t-175.5 -22q-52 0 -117 7.5t-141 21.5z" />
    <glyph glyph-name="circumflex" unicode="&#x2c6;" 
d="M702 1571l312 -318h-355l-147 152l-147 -152h-355l312 318h380z" />
    <glyph glyph-name="caron" unicode="&#x2c7;" 
d="M322 1253l-312 318h355l147 -152l147 152h355l-312 -318h-380z" />
    <glyph glyph-name="breve" unicode="&#x2d8;" 
d="M944 1583q-12 -156 -129 -249t-303 -93t-303 93t-129 249h246q14 -53 63 -83t123 -30t123 30t63 83h246z" />
    <glyph glyph-name="dotaccent" unicode="&#x2d9;" 
d="M383 1288v248h260v-248h-260z" />
    <glyph glyph-name="ring" unicode="&#x2da;" 
d="M414 1444q0 -40 27 -65t71 -25t71 25t27 65q0 41 -26.5 65.5t-71.5 24.5t-71.5 -24.5t-26.5 -65.5zM223 1444q0 97 77.5 153t211.5 56t211.5 -56t77.5 -153q0 -99 -76.5 -154t-212.5 -55q-134 0 -211.5 56t-77.5 153z" />
    <glyph glyph-name="ogonek" unicode="&#x2db;" 
d="M633 0q-63 -58 -91 -104.5t-28 -92.5q0 -41 18.5 -60t57.5 -19h102v-191h-74q-156 0 -221 45.5t-65 151.5q0 76 46.5 141t145.5 129h109z" />
    <glyph glyph-name="tilde" unicode="&#x2dc;" 
d="M63 1264v26q0 122 72.5 198.5t186.5 76.5q74 0 180.5 -37t138.5 -37q36 0 57.5 18.5t24.5 50.5l238 1v-27q0 -122 -73 -199.5t-186 -77.5q-74 0 -180.5 37t-138.5 37q-36 0 -57 -17t-25 -50h-238z" />
    <glyph glyph-name="hungarumlaut" unicode="&#x2dd;" 
d="M397 1567h246l-252 -314h-110zM569 1253l156 314h254l-291 -314h-119z" />
    <glyph glyph-name="Omega" unicode="&#x3a9;" horiz-adv-x="1575" 
d="M1227 256h291v-256h-609v291q126 86 192 217.5t66 296.5q0 203 -101.5 319.5t-279.5 116.5q-177 0 -278.5 -116.5t-101.5 -319.5q0 -164 66 -296.5t192 -217.5v-291h-609v256h291q-126 121 -187 260t-61 303q0 313 188 501.5t500 188.5q313 0 501 -188.5t188 -501.5
q0 -164 -61 -303t-187 -260z" />
    <glyph glyph-name="pi" unicode="&#x3c0;" horiz-adv-x="1319" 
d="M1354 1092l-39 -224h-176l-154 -868h-287l152 868h-238l-151 -868h-287l152 868h-25q-55 0 -84 -31t-39 -99l-213 -1q30 200 123 277.5t311 77.5h955z" />
    <glyph glyph-name="endash" unicode="&#x2013;" 
d="M0 440v224h1024v-224h-1024z" />
    <glyph glyph-name="emdash" unicode="&#x2014;" horiz-adv-x="2048" 
d="M2048 664v-224h-2048v224h2048z" />
    <glyph glyph-name="quoteleft" unicode="&#x2018;" horiz-adv-x="711" 
d="M551 1178v-357h-383v242q0 124 35 218.5t119 197.5h245q-75 -95 -107 -163.5t-32 -131.5v-6h123z" />
    <glyph glyph-name="quoteright" unicode="&#x2019;" horiz-adv-x="711" 
d="M160 1124v355h385v-240q0 -123 -36 -218.5t-120 -199.5h-246q75 93 107.5 163t32.5 134v6h-123z" />
    <glyph glyph-name="quotesinglbase" unicode="&#x201a;" horiz-adv-x="711" 
d="M160 0v356h385v-241q0 -123 -36 -217.5t-120 -198.5h-246q75 94 107.5 163t32.5 132v6h-123z" />
    <glyph glyph-name="quotedblleft" unicode="&#x201c;" horiz-adv-x="1239" 
d="M1079 1178v-357h-383v242q0 122 36 217t120 199h244q-74 -93 -106 -162t-32 -133v-6h121zM551 1178v-357h-383v242q0 124 35 218.5t119 197.5h245q-75 -95 -107 -163.5t-32 -131.5v-6h123z" />
    <glyph glyph-name="quotedblright" unicode="&#x201d;" horiz-adv-x="1239" 
d="M160 1124v355h383v-240q0 -124 -35.5 -220t-118.5 -198h-246q73 91 105.5 161.5t32.5 135.5v6h-121zM688 1124v355h383v-240q0 -124 -35.5 -220t-117.5 -198h-246q74 93 106.5 163t32.5 134v6h-123z" />
    <glyph glyph-name="quotedblbase" unicode="&#x201e;" horiz-adv-x="1239" 
d="M160 0v356h383v-241q0 -124 -35.5 -219t-118.5 -197h-246q74 92 106 161.5t32 133.5v6h-121zM688 0v356h383v-241q0 -124 -35 -219t-118 -197h-246q75 94 107 163t32 132v6h-123z" />
    <glyph glyph-name="dagger" unicode="&#x2020;" horiz-adv-x="1636" 
d="M647 -313v1091h-452v303h452v398h342v-398h453v-303h-453v-1091h-342z" />
    <glyph glyph-name="daggerdbl" unicode="&#x2021;" horiz-adv-x="1636" 
d="M649 -313v389h-454v284h454v465h-454v285h454v369h336v-369h457v-285h-457v-465h457v-284h-457v-389h-336z" />
    <glyph glyph-name="bullet" unicode="&#x2022;" horiz-adv-x="1208" 
d="M307 762q0 123 87 209t210 86q122 0 208.5 -86.5t86.5 -208.5t-87.5 -209.5t-209.5 -87.5q-123 0 -209 87t-86 210z" />
    <glyph glyph-name="ellipsis" unicode="&#x2026;" horiz-adv-x="2048" 
d="M147 0v356h385v-356h-385zM829 0v356h385v-356h-385zM1513 0v356h385v-356h-385z" />
    <glyph glyph-name="perthousand" unicode="&#x2030;" horiz-adv-x="2781" 
d="M2157 348q0 -100 40.5 -154.5t116.5 -54.5q77 0 117.5 54t40.5 155q0 102 -41 156.5t-117 54.5q-75 0 -116 -55t-41 -156zM1915 348q0 184 104 285.5t293 101.5q192 0 297 -101t105 -286q0 -184 -105 -285.5t-297 -101.5q-189 0 -293 101.5t-104 285.5zM1262 348
q0 -100 41.5 -154.5t117.5 -54.5q77 0 117.5 54t40.5 155q0 102 -41 156.5t-117 54.5t-117.5 -55t-41.5 -156zM1022 348q0 184 104 285.5t293 101.5q192 0 297 -101t105 -286q0 -184 -105 -285.5t-297 -101.5q-189 0 -293 101.5t-104 285.5zM289 -39l1077 1518h233
l-1079 -1518h-231zM307 1092q0 -100 42 -154.5t118 -54.5t117 53.5t41 155.5t-41 156.5t-117 54.5t-118 -55.5t-42 -155.5zM66 1092q0 183 104.5 285t294.5 102q192 0 296.5 -101.5t104.5 -285.5q0 -185 -104.5 -286t-296.5 -101q-190 0 -294.5 101.5t-104.5 285.5z" />
    <glyph glyph-name="guilsinglleft" unicode="&#x2039;" horiz-adv-x="721" 
d="M137 674l438 352v-326l-198 -147l198 -150v-325l-438 352v244z" />
    <glyph glyph-name="guilsinglright" unicode="&#x203a;" horiz-adv-x="721" 
d="M580 430l-439 -352v325l197 150l-197 147v326l439 -352v-244z" />
    <glyph glyph-name="franc" unicode="&#x20a3;" horiz-adv-x="2388" 
d="M166 0v1479h1261v-299h-890v-285h815v-299h-815v-596h-371zM1960 0h-342v1104h342v-146q78 94 160.5 139.5t173.5 45.5q18 0 69 -6q18 -1 27 -2v-291q-17 2 -39 3t-69 1q-150 0 -236 -94t-86 -260v-494z" />
    <glyph glyph-name="trademark" unicode="&#x2122;" horiz-adv-x="1706" 
d="M803 1462h196l127 -332l123 332h197v-547h-135v410l-154 -410h-61l-158 410v-410h-135v547zM207 1462h485v-112h-168v-435h-149v435h-168v112z" />
    <glyph glyph-name="partialdiff" unicode="&#x2202;" horiz-adv-x="1094" 
d="M762 662q19 99 29 188.5t10 155.5q0 100 -26 157.5t-70 57.5t-146 -73t-160 -73q-42 0 -71 30t-29 73q0 64 86.5 118t210.5 54q192 0 309 -161.5t117 -432.5q0 -339 -156.5 -560t-396.5 -221q-171 0 -282 114.5t-111 291.5q0 198 116 329.5t287 131.5q102 0 170 -43.5
t113 -136.5zM700 518q0 116 -38.5 178t-110.5 62q-101 0 -167.5 -134t-66.5 -341q0 -117 38.5 -177.5t111.5 -60.5q101 0 167 133.5t66 339.5z" />
    <glyph glyph-name="Delta" unicode="&#x2206;" horiz-adv-x="1427" 
d="M713 1110l-326 -854h653zM563 1473h301l563 -1473h-1427z" />
    <glyph glyph-name="product" unicode="&#x220f;" horiz-adv-x="1612" 
d="M150 1473h1308v-1866h-344v1577h-620v-1577h-344v1866z" />
    <glyph glyph-name="summation" unicode="&#x2211;" horiz-adv-x="1470" 
d="M66 1473h1308v-265h-878l620 -645l-622 -690h933v-266h-1386v172l698 772l-673 690v232z" />
    <glyph glyph-name="minus" unicode="&#x2212;" horiz-adv-x="1706" 
d="M254 713h1198v-203h-1198v203z" />
    <glyph glyph-name="fraction" unicode="&#x2215;" horiz-adv-x="440" 
d="M-436 -39l1079 1518h234l-1080 -1518h-233z" />
    <glyph glyph-name="periodcentered" unicode="&#x2219;" horiz-adv-x="748" 
d="M150 721q0 94 64.5 158.5t158.5 64.5q93 0 158 -64.5t65 -158.5t-65 -158.5t-158 -64.5q-94 0 -158.5 64.5t-64.5 158.5z" />
    <glyph glyph-name="radical" unicode="&#x221a;" horiz-adv-x="1346" 
d="M1141 1694h207v-129h-103l-592 -1606h-100l-311 858l-140 -51l-30 113l331 116l236 -661z" />
    <glyph glyph-name="infinity" unicode="&#x221e;" horiz-adv-x="1706" 
d="M942 561q45 -75 106.5 -113t139.5 -38q94 0 152.5 55.5t58.5 144.5q0 86 -54 142.5t-135 56.5q-74 0 -136 -57t-132 -191zM766 659q-46 76 -107 113t-139 37q-93 0 -152 -56.5t-59 -144.5q0 -85 54 -141.5t135 -56.5q75 0 138 58t130 191zM858 457q-69 -133 -147 -195.5
t-174 -62.5q-139 0 -235.5 117.5t-96.5 293.5q0 184 85.5 297t223.5 113q93 0 169.5 -58.5t164.5 -199.5q68 132 148 196t175 64q139 0 235.5 -118t96.5 -294q0 -183 -86 -296t-223 -113q-93 0 -168.5 56.5t-167.5 199.5z" />
    <glyph glyph-name="integral" unicode="&#x222b;" horiz-adv-x="1186" 
d="M342 -252q102 0 121 639q3 136 6 211q16 508 123 732t328 224q98 0 157.5 -49t59.5 -129q0 -60 -38 -96.5t-100 -36.5q-46 0 -77 24t-41 68q-5 20 -7 54q-3 46 -30 47q-99 0 -119 -633q-4 -116 -6 -178q-11 -296 -31 -444.5t-59 -250.5q-56 -148 -148.5 -225.5
t-214.5 -77.5q-96 0 -156.5 49t-60.5 127q0 62 39 99t105 37q50 0 85 -31.5t35 -71.5q0 -58 6 -73t23 -15z" />
    <glyph glyph-name="approxequal" unicode="&#x2248;" horiz-adv-x="1706" 
d="M1530 596v-219q-106 -72 -198 -105.5t-181 -33.5q-95 0 -286.5 66.5t-301.5 66.5q-84 0 -174.5 -37t-210.5 -121v219q111 73 206.5 108t180.5 35q124 0 315.5 -65.5t274.5 -65.5q86 0 174 35.5t201 116.5zM1530 1008v-220q-106 -71 -196.5 -104t-180.5 -33
q-94 0 -286 65.5t-304 65.5q-82 0 -170 -35t-215 -122v219q107 71 204 107t183 36q125 0 316.5 -65.5t273.5 -65.5q84 0 171 35t204 117z" />
    <glyph glyph-name="notequal" unicode="&#x2260;" horiz-adv-x="1706" 
d="M1198 1233l148 -119l-154 -192h260v-191h-389l-191 -239h580v-193h-707l-245 -309l-148 119l154 190h-252v193h377l190 239h-567v191h696z" />
    <glyph glyph-name="lessequal" unicode="&#x2264;" horiz-adv-x="1706" 
d="M258 195h1192v-197h-1192v197zM1448 1241v-209l-834 -264l834 -262v-209l-1190 385v174z" />
    <glyph glyph-name="greaterequal" unicode="&#x2265;" horiz-adv-x="1706" 
d="M258 195h1192v-197h-1192v197zM260 1241l1188 -385v-174l-1188 -385v209l832 262l-832 264v209z" />
    <glyph glyph-name="lozenge" unicode="&#x25ca;" horiz-adv-x="1012" 
d="M506 1409l-385 -817l385 -825l385 825zM506 1653l500 -1061l-500 -1069l-500 1069z" />
    <glyph glyph-name="apple" unicode="&#xf000;" horiz-adv-x="1618" 
d="M836 1216q-1 6 -1.5 14t-0.5 23q0 124 95 229.5t236 131.5q1 -10 1.5 -23t0.5 -39q0 -131 -103.5 -234.5t-203.5 -103.5h-8q-3 0 -7.5 1t-8.5 1zM1505 403q-114 -247 -205 -342.5t-204 -95.5q-50 0 -131.5 33t-122.5 33q-45 0 -131 -33t-127 -33q-64 0 -128.5 44
t-129.5 132q-102 140 -157.5 295.5t-55.5 300.5q0 219 125 356.5t323 137.5q68 0 155 -34t124 -34q34 0 121.5 35t152.5 35q110 0 198 -40t161 -124q-102 -65 -151.5 -145.5t-49.5 -182.5q0 -113 60 -200t173 -138z" />
    <glyph glyph-name="fi" unicode="&#xf001;" horiz-adv-x="1491" 
d="M989 0v1104h342v-1104h-342zM1331 1214h-342v265h342v-265zM227 0v844h-161v260h161v110q0 142 84.5 203.5t282.5 61.5h231v-265h-143q-69 0 -91 -17.5t-22 -68.5v-24h256v-260h-256v-844h-342z" />
    <glyph glyph-name="fl" unicode="&#xf002;" horiz-adv-x="1491" 
d="M989 0v1479h342v-1479h-342zM227 0v844h-161v260h161v110q0 142 84.5 203.5t282.5 61.5h231v-265h-143q-69 0 -91 -17.5t-22 -68.5v-24h256v-260h-256v-844h-342z" />
    </font>
</defs>
</svg>
